<svg width="51" height="66" viewBox="0 0 51 66" fill="none" xmlns="http://www.w3.org/2000/svg">
<path d="M1.375 52V50.79H3.905V14.71H1.375V13.5H9.8725C11.5958 13.5 13.1817 14.1967 14.63 15.59C16.0783 16.965 17.2333 19.055 18.095 21.86C18.975 24.665 19.415 28.1942 19.415 32.4475C19.415 36.7375 18.975 40.34 18.095 43.255C17.2333 46.1517 16.0692 48.3333 14.6025 49.8C13.1542 51.2667 11.5775 52 9.8725 52H1.375ZM8.03 50.79H9.295C10.3217 50.79 11.275 50.1483 12.155 48.865C13.0533 47.5633 13.7775 45.565 14.3275 42.87C14.8775 40.1567 15.1525 36.6825 15.1525 32.4475C15.1525 28.7075 14.905 25.5175 14.41 22.8775C13.915 20.2375 13.2733 18.2208 12.485 16.8275C11.6967 15.4158 10.8625 14.71 9.9825 14.71H8.03V50.79ZM25.071 52.6325C24.2826 52.6325 23.6135 52.3483 23.0635 51.78C22.5135 51.2117 22.2385 50.5333 22.2385 49.745C22.2385 48.9383 22.5135 48.26 23.0635 47.71C23.6135 47.16 24.2826 46.885 25.071 46.885C25.841 46.885 26.5101 47.16 27.0785 47.71C27.6468 48.26 27.931 48.9383 27.931 49.745C27.931 50.5333 27.6468 51.2117 27.0785 51.78C26.5101 52.3483 25.841 52.6325 25.071 52.6325ZM30.5336 52V50.79H33.0636V14.71H30.5336V13.5H37.7111L46.4836 42.595H46.2361V14.71H43.7061V13.5H49.9211V14.71H47.5011V52H45.1361L34.0811 16.085H34.3011V50.79H37.0786V52H30.5336Z" fill="black"/>
</svg>
