<svg width="526" height="593" viewBox="0 0 526 593" fill="none" xmlns="http://www.w3.org/2000/svg">
<mask id="mask0_539_108" style="mask-type:alpha" maskUnits="userSpaceOnUse" x="0" y="0" width="526" height="593">
<rect width="526" height="593" fill="#D9D9D9"/>
</mask>
<g mask="url(#mask0_539_108)">
<rect y="593" width="593" height="526" transform="rotate(-90 0 593)" fill="url(#paint0_linear_539_108)"/>
<g filter="url(#filter0_d_539_108)">
<g filter="url(#filter1_d_539_108)">
<rect x="21" y="154" width="154" height="80" transform="rotate(-90 21 154)" fill="white"/>
<rect x="21.5" y="153.5" width="153" height="79" transform="rotate(-90 21.5 153.5)" stroke="#3C64B1"/>
</g>
<path d="M44.3577 139.424C43.6643 139.424 42.987 139.301 42.3257 139.056C41.6537 138.811 41.0457 138.453 40.5017 137.984C39.947 137.515 39.5097 136.939 39.1897 136.256C38.859 135.573 38.6937 134.805 38.6937 133.952C38.6937 132.917 38.9283 132.032 39.3977 131.296C39.8563 130.549 40.4483 130 41.1737 129.648L42.0857 131.008C41.627 131.211 41.2643 131.477 40.9977 131.808C40.7203 132.139 40.5283 132.496 40.4217 132.88C40.315 133.264 40.2617 133.643 40.2617 134.016C40.2617 134.603 40.3843 135.125 40.6297 135.584C40.8643 136.043 41.1843 136.427 41.5897 136.736C41.9843 137.045 42.4323 137.28 42.9337 137.44C43.4243 137.589 43.9203 137.664 44.4217 137.664C44.9763 137.664 45.5097 137.573 46.0217 137.392C46.5337 137.2 46.987 136.944 47.3817 136.624C47.7657 136.293 48.075 135.904 48.3097 135.456C48.5337 134.997 48.6457 134.501 48.6457 133.968C48.6457 133.595 48.5817 133.211 48.4537 132.816C48.3257 132.421 48.123 132.053 47.8457 131.712C47.5683 131.371 47.2057 131.099 46.7577 130.896L47.5737 129.456C48.139 129.691 48.619 130.059 49.0137 130.56C49.4083 131.051 49.707 131.605 49.9097 132.224C50.1123 132.832 50.2137 133.435 50.2137 134.032C50.2137 134.821 50.0483 135.547 49.7177 136.208C49.3763 136.859 48.9283 137.429 48.3737 137.92C47.8083 138.4 47.179 138.773 46.4857 139.04C45.7817 139.296 45.0723 139.424 44.3577 139.424ZM38.4377 127.814V126.726H48.2297C48.6457 126.726 48.9177 126.652 49.0457 126.502C49.1737 126.353 49.2377 126.172 49.2377 125.958C49.2377 125.766 49.2163 125.574 49.1737 125.382C49.131 125.19 49.0883 125.025 49.0457 124.886L49.9257 124.694C50.011 124.897 50.0803 125.148 50.1337 125.446C50.187 125.734 50.2137 125.985 50.2137 126.198C50.2137 126.689 50.0697 127.084 49.7817 127.382C49.4937 127.67 49.099 127.814 48.5977 127.814H38.4377ZM50.2777 119.903C50.2777 120.5 50.1657 121.055 49.9417 121.567C49.707 122.079 49.3923 122.522 48.9977 122.895C48.5923 123.268 48.1283 123.562 47.6057 123.775C47.083 123.978 46.523 124.079 45.9257 124.079C45.147 124.079 44.4323 123.903 43.7817 123.551C43.131 123.188 42.6137 122.692 42.2297 122.063C41.835 121.434 41.6377 120.719 41.6377 119.919C41.6377 119.098 41.835 118.383 42.2297 117.775C42.6243 117.156 43.147 116.671 43.7977 116.319C44.4377 115.967 45.1417 115.791 45.9097 115.791C45.995 115.791 46.0803 115.791 46.1657 115.791C46.2403 115.791 46.299 115.796 46.3417 115.807V122.943C46.939 122.89 47.4723 122.724 47.9417 122.447C48.4003 122.159 48.7683 121.791 49.0457 121.343C49.3123 120.884 49.4457 120.388 49.4457 119.855C49.4457 119.311 49.307 118.799 49.0297 118.319C48.7523 117.828 48.3897 117.487 47.9417 117.295L48.1977 116.351C48.5923 116.522 48.9497 116.783 49.2697 117.135C49.5897 117.487 49.8403 117.903 50.0217 118.383C50.1923 118.852 50.2777 119.359 50.2777 119.903ZM45.5577 122.975V116.815C44.9497 116.858 44.4163 117.023 43.9577 117.311C43.499 117.588 43.1417 117.956 42.8857 118.415C42.619 118.863 42.4857 119.359 42.4857 119.903C42.4857 120.447 42.619 120.943 42.8857 121.391C43.1417 121.839 43.5043 122.207 43.9737 122.495C44.4323 122.772 44.9603 122.932 45.5577 122.975ZM47.7177 114.785C47.195 114.785 46.747 114.635 46.3737 114.336C45.9897 114.038 45.6963 113.627 45.4937 113.104C45.2803 112.571 45.1737 111.958 45.1737 111.264C45.1737 110.859 45.2057 110.438 45.2697 110C45.3337 109.563 45.4297 109.174 45.5577 108.832H44.8537C44.1497 108.832 43.5897 109.04 43.1737 109.456C42.7577 109.872 42.5497 110.448 42.5497 111.184C42.5497 111.632 42.635 112.075 42.8057 112.512C42.9657 112.939 43.2057 113.387 43.5257 113.856L42.7577 114.272C42.3843 113.728 42.107 113.195 41.9257 112.672C41.7337 112.15 41.6377 111.616 41.6377 111.072C41.6377 110.048 41.931 109.238 42.5177 108.64C43.1043 108.043 43.915 107.744 44.9497 107.744H48.8057C48.955 107.744 49.067 107.712 49.1417 107.648C49.2057 107.584 49.243 107.483 49.2537 107.344H50.1177C50.1283 107.462 50.139 107.563 50.1497 107.648C50.1603 107.734 50.1603 107.798 50.1497 107.84C50.139 108.107 50.0537 108.31 49.8937 108.448C49.7337 108.587 49.563 108.662 49.3817 108.672L48.7737 108.688C49.2537 109.062 49.627 109.547 49.8937 110.144C50.1497 110.742 50.2777 111.35 50.2777 111.968C50.2777 112.502 50.1657 112.987 49.9417 113.424C49.707 113.851 49.3977 114.187 49.0137 114.432C48.619 114.667 48.187 114.785 47.7177 114.785ZM48.3577 109.2C48.2083 109.083 48.0643 108.992 47.9257 108.928C47.787 108.864 47.6643 108.832 47.5577 108.832H46.3417C46.203 109.195 46.0963 109.574 46.0217 109.968C45.947 110.352 45.9097 110.742 45.9097 111.136C45.9097 111.915 46.0643 112.544 46.3737 113.024C46.683 113.504 47.1043 113.744 47.6377 113.744C47.947 113.744 48.2403 113.664 48.5177 113.504C48.7843 113.344 49.0083 113.11 49.1897 112.8C49.3603 112.491 49.4457 112.128 49.4457 111.712C49.4457 111.19 49.3443 110.704 49.1417 110.256C48.939 109.798 48.6777 109.446 48.3577 109.2ZM50.1177 98.3857V99.4737H45.4617C44.4803 99.4737 43.7657 99.6177 43.3177 99.9057C42.859 100.194 42.6297 100.647 42.6297 101.266C42.6297 101.692 42.7363 102.114 42.9497 102.53C43.1523 102.946 43.435 103.314 43.7977 103.634C44.1497 103.943 44.555 104.167 45.0137 104.306H50.1177V105.394H41.7817V104.402H43.6697C43.2643 104.178 42.9123 103.884 42.6137 103.522C42.3043 103.159 42.0643 102.748 41.8937 102.29C41.723 101.831 41.6377 101.356 41.6377 100.866C41.6377 100.407 41.723 100.018 41.8937 99.6977C42.0643 99.3777 42.3097 99.1217 42.6297 98.9297C42.939 98.7377 43.3177 98.5991 43.7657 98.5138C44.203 98.4284 44.6937 98.3857 45.2377 98.3857H50.1177ZM67.5337 130.928H69.1177V138.72H57.7577V131.072H59.3417V136.928H62.5737V131.856H64.0617V136.928H67.5337V130.928ZM69.1177 122.151V123.239H64.4617C63.4803 123.239 62.7657 123.383 62.3177 123.671C61.859 123.959 61.6297 124.413 61.6297 125.031C61.6297 125.458 61.7363 125.879 61.9497 126.295C62.1523 126.711 62.435 127.079 62.7977 127.399C63.1497 127.709 63.555 127.933 64.0137 128.071H69.1177V129.159H60.7817V128.167H62.6697C62.2643 127.943 61.9123 127.65 61.6137 127.287C61.3043 126.925 61.0643 126.514 60.8937 126.055C60.723 125.597 60.6377 125.122 60.6377 124.631C60.6377 124.173 60.723 123.783 60.8937 123.463C61.0643 123.143 61.3097 122.887 61.6297 122.695C61.939 122.503 62.3177 122.365 62.7657 122.279C63.203 122.194 63.6937 122.151 64.2377 122.151H69.1177ZM69.2777 116.231C69.2777 116.829 69.1657 117.383 68.9417 117.895C68.707 118.407 68.3923 118.85 67.9977 119.223C67.5923 119.597 67.1283 119.89 66.6057 120.103C66.083 120.306 65.523 120.407 64.9257 120.407C64.147 120.407 63.4323 120.231 62.7817 119.879C62.131 119.517 61.6137 119.021 61.2297 118.391C60.835 117.762 60.6377 117.047 60.6377 116.247C60.6377 115.426 60.835 114.711 61.2297 114.103C61.6243 113.485 62.147 112.999 62.7977 112.647C63.4377 112.295 64.1417 112.119 64.9097 112.119C64.995 112.119 65.0803 112.119 65.1657 112.119C65.2403 112.119 65.299 112.125 65.3417 112.135V119.271C65.939 119.218 66.4723 119.053 66.9417 118.775C67.4003 118.487 67.7683 118.119 68.0457 117.671C68.3123 117.213 68.4457 116.717 68.4457 116.183C68.4457 115.639 68.307 115.127 68.0297 114.647C67.7523 114.157 67.3897 113.815 66.9417 113.623L67.1977 112.679C67.5923 112.85 67.9497 113.111 68.2697 113.463C68.5897 113.815 68.8403 114.231 69.0217 114.711C69.1923 115.181 69.2777 115.687 69.2777 116.231ZM64.5577 119.303V113.143C63.9497 113.186 63.4163 113.351 62.9577 113.639C62.499 113.917 62.1417 114.285 61.8857 114.743C61.619 115.191 61.4857 115.687 61.4857 116.231C61.4857 116.775 61.619 117.271 61.8857 117.719C62.1417 118.167 62.5043 118.535 62.9737 118.823C63.4323 119.101 63.9603 119.261 64.5577 119.303ZM61.7417 106.281C61.763 107.006 61.9657 107.646 62.3497 108.201C62.7337 108.745 63.2617 109.129 63.9337 109.353H69.1177V110.441H60.7817V109.417H62.7817C62.195 109.129 61.7203 108.75 61.3577 108.281C60.995 107.801 60.7923 107.294 60.7497 106.761C60.739 106.654 60.7337 106.563 60.7337 106.489C60.7337 106.403 60.739 106.334 60.7497 106.281H61.7417ZM69.2297 101.722C69.2297 102.287 69.1123 102.81 68.8777 103.29C68.643 103.77 68.3283 104.186 67.9337 104.538C67.5283 104.879 67.0697 105.146 66.5577 105.338C66.0457 105.53 65.5177 105.626 64.9737 105.626C64.387 105.626 63.8377 105.535 63.3257 105.354C62.803 105.162 62.339 104.895 61.9337 104.554C61.5283 104.202 61.2137 103.791 60.9897 103.322C60.755 102.852 60.6377 102.33 60.6377 101.754C60.6377 101.039 60.819 100.42 61.1817 99.8976C61.5443 99.3643 61.9923 98.9163 62.5257 98.5536H60.7817V97.5776H69.1497C69.9177 97.5776 70.563 97.7643 71.0857 98.1376C71.619 98.5003 72.019 98.9963 72.2857 99.6256C72.5523 100.244 72.6857 100.922 72.6857 101.658C72.6857 102.607 72.515 103.375 72.1737 103.962C71.8323 104.548 71.3737 105.028 70.7977 105.402L70.2697 104.73C70.7923 104.399 71.1817 103.962 71.4377 103.418C71.6937 102.863 71.8217 102.276 71.8217 101.658C71.8217 101.114 71.7203 100.618 71.5177 100.17C71.3257 99.711 71.0323 99.3483 70.6377 99.0816C70.243 98.8043 69.747 98.6656 69.1497 98.6656H67.5017C68.0243 98.9856 68.4457 99.423 68.7657 99.9776C69.075 100.532 69.2297 101.114 69.2297 101.722ZM68.3177 101.418C68.3177 101.087 68.259 100.772 68.1417 100.474C68.0243 100.164 67.8697 99.8816 67.6777 99.6256C67.475 99.3696 67.251 99.1563 67.0057 98.9856C66.7603 98.815 66.5097 98.7083 66.2537 98.6656H63.6777C63.2723 98.8256 62.915 99.055 62.6057 99.3536C62.2857 99.6523 62.0403 99.9936 61.8697 100.378C61.6883 100.751 61.5977 101.14 61.5977 101.546C61.5977 102.015 61.699 102.436 61.9017 102.81C62.0937 103.172 62.355 103.482 62.6857 103.738C63.0057 103.983 63.3683 104.175 63.7737 104.314C64.179 104.452 64.5843 104.522 64.9897 104.522C65.4377 104.522 65.8643 104.442 66.2697 104.282C66.6643 104.122 67.0217 103.903 67.3417 103.626C67.651 103.338 67.891 103.007 68.0617 102.634C68.2323 102.25 68.3177 101.844 68.3177 101.418ZM71.6777 94.695C71.6883 94.5457 71.6937 94.4017 71.6937 94.263C71.7043 94.1243 71.699 94.023 71.6777 93.959C71.6563 93.831 71.5817 93.7083 71.4537 93.591C71.3257 93.4737 71.0803 93.335 70.7177 93.175C70.355 93.015 69.8217 92.791 69.1177 92.503L60.7817 96.135V94.983L67.9977 91.927L60.7817 89.111V88.023L71.5337 92.343C71.7363 92.4177 71.923 92.5297 72.0937 92.679C72.275 92.8283 72.4137 93.015 72.5097 93.239C72.6163 93.4523 72.675 93.719 72.6857 94.039C72.6963 94.135 72.6963 94.2363 72.6857 94.343C72.6857 94.439 72.675 94.5563 72.6537 94.695H71.6777ZM88.1177 138.72H76.7577V133.776C76.7577 133.264 76.8643 132.795 77.0777 132.368C77.291 131.941 77.5737 131.573 77.9257 131.264C78.2777 130.944 78.6723 130.699 79.1097 130.528C79.547 130.347 79.995 130.256 80.4537 130.256C80.955 130.256 81.435 130.347 81.8937 130.528C82.3523 130.709 82.747 130.971 83.0777 131.312C83.4083 131.643 83.6483 132.032 83.7977 132.48L88.1177 129.808V131.824L84.1657 134.288V136.928H88.1177V138.72ZM82.5817 136.928V133.792C82.5817 133.461 82.4857 133.168 82.2937 132.912C82.1017 132.656 81.8457 132.453 81.5257 132.304C81.195 132.155 80.8377 132.08 80.4537 132.08C80.059 132.08 79.707 132.165 79.3977 132.336C79.0777 132.507 78.8217 132.731 78.6297 133.008C78.4377 133.275 78.3417 133.568 78.3417 133.888V136.928H82.5817ZM88.2777 124.622C88.2777 125.219 88.1657 125.774 87.9417 126.286C87.707 126.798 87.3923 127.241 86.9977 127.614C86.5923 127.987 86.1283 128.281 85.6057 128.494C85.083 128.697 84.523 128.798 83.9257 128.798C83.147 128.798 82.4323 128.622 81.7817 128.27C81.131 127.907 80.6137 127.411 80.2297 126.782C79.835 126.153 79.6377 125.438 79.6377 124.638C79.6377 123.817 79.835 123.102 80.2297 122.494C80.6243 121.875 81.147 121.39 81.7977 121.038C82.4377 120.686 83.1417 120.51 83.9097 120.51C83.995 120.51 84.0803 120.51 84.1657 120.51C84.2403 120.51 84.299 120.515 84.3417 120.526V127.662C84.939 127.609 85.4723 127.443 85.9417 127.166C86.4003 126.878 86.7683 126.51 87.0457 126.062C87.3123 125.603 87.4457 125.107 87.4457 124.574C87.4457 124.03 87.307 123.518 87.0297 123.038C86.7523 122.547 86.3897 122.206 85.9417 122.014L86.1977 121.07C86.5923 121.241 86.9497 121.502 87.2697 121.854C87.5897 122.206 87.8403 122.622 88.0217 123.102C88.1923 123.571 88.2777 124.078 88.2777 124.622ZM83.5577 127.694V121.534C82.9497 121.577 82.4163 121.742 81.9577 122.03C81.499 122.307 81.1417 122.675 80.8857 123.134C80.619 123.582 80.4857 124.078 80.4857 124.622C80.4857 125.166 80.619 125.662 80.8857 126.11C81.1417 126.558 81.5043 126.926 81.9737 127.214C82.4323 127.491 82.9603 127.651 83.5577 127.694ZM88.2297 115.487C88.2297 116.053 88.1123 116.575 87.8777 117.055C87.643 117.535 87.3283 117.951 86.9337 118.303C86.5283 118.645 86.0697 118.911 85.5577 119.103C85.0457 119.295 84.5177 119.391 83.9737 119.391C83.387 119.391 82.8377 119.301 82.3257 119.119C81.803 118.927 81.339 118.661 80.9337 118.319C80.5283 117.967 80.2137 117.557 79.9897 117.087C79.755 116.618 79.6377 116.095 79.6377 115.519C79.6377 114.805 79.819 114.186 80.1817 113.663C80.5443 113.13 80.9923 112.682 81.5257 112.319H79.7817V111.343H88.1497C88.9177 111.343 89.563 111.53 90.0857 111.903C90.619 112.266 91.019 112.762 91.2857 113.391C91.5523 114.01 91.6857 114.687 91.6857 115.423C91.6857 116.373 91.515 117.141 91.1737 117.727C90.8323 118.314 90.3737 118.794 89.7977 119.167L89.2697 118.495C89.7923 118.165 90.1817 117.727 90.4377 117.183C90.6937 116.629 90.8217 116.042 90.8217 115.423C90.8217 114.879 90.7203 114.383 90.5177 113.935C90.3257 113.477 90.0323 113.114 89.6377 112.847C89.243 112.57 88.747 112.431 88.1497 112.431H86.5017C87.0243 112.751 87.4457 113.189 87.7657 113.743C88.075 114.298 88.2297 114.879 88.2297 115.487ZM87.3177 115.183C87.3177 114.853 87.259 114.538 87.1417 114.239C87.0243 113.93 86.8697 113.647 86.6777 113.391C86.475 113.135 86.251 112.922 86.0057 112.751C85.7603 112.581 85.5097 112.474 85.2537 112.431H82.6777C82.2723 112.591 81.915 112.821 81.6057 113.119C81.2857 113.418 81.0403 113.759 80.8697 114.143C80.6883 114.517 80.5977 114.906 80.5977 115.311C80.5977 115.781 80.699 116.202 80.9017 116.575C81.0937 116.938 81.355 117.247 81.6857 117.503C82.0057 117.749 82.3683 117.941 82.7737 118.079C83.179 118.218 83.5843 118.287 83.9897 118.287C84.4377 118.287 84.8643 118.207 85.2697 118.047C85.6643 117.887 86.0217 117.669 86.3417 117.391C86.651 117.103 86.891 116.773 87.0617 116.399C87.2323 116.015 87.3177 115.61 87.3177 115.183ZM84.6777 109.021H79.7817V107.933H84.4857C85.435 107.933 86.1443 107.773 86.6137 107.453C87.083 107.122 87.3177 106.637 87.3177 105.997C87.3177 105.57 87.227 105.159 87.0457 104.765C86.8537 104.359 86.587 104.002 86.2457 103.693C85.8937 103.383 85.4883 103.149 85.0297 102.989H79.7817V101.901H86.8057C86.955 101.901 87.067 101.869 87.1417 101.805C87.2057 101.741 87.243 101.645 87.2537 101.517H88.1177C88.1283 101.645 88.1337 101.746 88.1337 101.821C88.1443 101.895 88.1497 101.965 88.1497 102.029C88.1283 102.242 88.043 102.429 87.8937 102.589C87.7443 102.738 87.563 102.818 87.3497 102.829L86.2297 102.861C86.8697 103.223 87.371 103.719 87.7337 104.349C88.0963 104.967 88.2777 105.639 88.2777 106.365C88.2777 107.239 87.9737 107.901 87.3657 108.349C86.7577 108.797 85.8617 109.021 84.6777 109.021ZM76.4377 99.3926V98.3046H86.2297C86.6457 98.3046 86.9177 98.23 87.0457 98.0806C87.1737 97.9313 87.2377 97.75 87.2377 97.5366C87.2377 97.3446 87.2163 97.1526 87.1737 96.9606C87.131 96.7686 87.0883 96.6033 87.0457 96.4646L87.9257 96.2726C88.011 96.4753 88.0803 96.726 88.1337 97.0246C88.187 97.3126 88.2137 97.5633 88.2137 97.7766C88.2137 98.2673 88.0697 98.662 87.7817 98.9606C87.4937 99.2486 87.099 99.3926 86.5977 99.3926H76.4377ZM85.7177 95.7533C85.195 95.7533 84.747 95.6039 84.3737 95.3052C83.9897 95.0066 83.6963 94.5959 83.4937 94.0732C83.2803 93.5399 83.1737 92.9266 83.1737 92.2332C83.1737 91.8279 83.2057 91.4066 83.2697 90.9692C83.3337 90.5319 83.4297 90.1426 83.5577 89.8012H82.8537C82.1497 89.8012 81.5897 90.0092 81.1737 90.4252C80.7577 90.8412 80.5497 91.4172 80.5497 92.1532C80.5497 92.6012 80.635 93.0439 80.8057 93.4812C80.9657 93.9079 81.2057 94.3559 81.5257 94.8252L80.7577 95.2412C80.3843 94.6972 80.107 94.1639 79.9257 93.6412C79.7337 93.1186 79.6377 92.5852 79.6377 92.0412C79.6377 91.0172 79.931 90.2066 80.5177 89.6092C81.1043 89.0119 81.915 88.7132 82.9497 88.7132H86.8057C86.955 88.7132 87.067 88.6812 87.1417 88.6172C87.2057 88.5532 87.243 88.4519 87.2537 88.3132H88.1177C88.1283 88.4306 88.139 88.5319 88.1497 88.6172C88.1603 88.7026 88.1603 88.7666 88.1497 88.8092C88.139 89.0759 88.0537 89.2786 87.8937 89.4172C87.7337 89.5559 87.563 89.6306 87.3817 89.6412L86.7737 89.6572C87.2537 90.0306 87.627 90.5159 87.8937 91.1132C88.1497 91.7106 88.2777 92.3186 88.2777 92.9372C88.2777 93.4706 88.1657 93.9559 87.9417 94.3932C87.707 94.8199 87.3977 95.1559 87.0137 95.4012C86.619 95.6359 86.187 95.7533 85.7177 95.7533ZM86.3577 90.1692C86.2083 90.0519 86.0643 89.9612 85.9257 89.8972C85.787 89.8332 85.6643 89.8012 85.5577 89.8012H84.3417C84.203 90.1639 84.0963 90.5426 84.0217 90.9372C83.947 91.3212 83.9097 91.7106 83.9097 92.1052C83.9097 92.8839 84.0643 93.5132 84.3737 93.9932C84.683 94.4732 85.1043 94.7132 85.6377 94.7132C85.947 94.7132 86.2403 94.6332 86.5177 94.4732C86.7843 94.3132 87.0083 94.0786 87.1897 93.7692C87.3603 93.4599 87.4457 93.0972 87.4457 92.6812C87.4457 92.1586 87.3443 91.6732 87.1417 91.2252C86.939 90.7666 86.6777 90.4146 86.3577 90.1692ZM87.7177 82.425C87.7497 82.5103 87.8083 82.6437 87.8937 82.825C87.979 83.0063 88.0537 83.225 88.1177 83.481C88.1817 83.737 88.2137 84.0143 88.2137 84.313C88.2137 84.6223 88.155 84.9157 88.0377 85.193C87.9203 85.4597 87.7443 85.673 87.5097 85.833C87.2643 85.993 86.9657 86.073 86.6137 86.073H80.6457V87.225H79.7817V86.073H76.9657V84.985H79.7817V83.065H80.6457V84.985H86.3097C86.6083 84.9637 86.8323 84.857 86.9817 84.665C87.131 84.4623 87.2057 84.233 87.2057 83.977C87.2057 83.6783 87.1577 83.4063 87.0617 83.161C86.955 82.9157 86.8803 82.7663 86.8377 82.713L87.7177 82.425ZM88.2777 77.6542C88.2777 78.2516 88.1657 78.8062 87.9417 79.3182C87.707 79.8196 87.3923 80.2569 86.9977 80.6302C86.5923 80.9929 86.1337 81.2756 85.6217 81.4782C85.099 81.6809 84.5497 81.7822 83.9737 81.7822C83.3763 81.7822 82.8217 81.6809 82.3097 81.4782C81.787 81.2756 81.3283 80.9876 80.9337 80.6142C80.5283 80.2409 80.2137 79.8036 79.9897 79.3022C79.755 78.7902 79.6377 78.2356 79.6377 77.6382C79.6377 77.0409 79.755 76.4916 79.9897 75.9902C80.2137 75.4889 80.5283 75.0516 80.9337 74.6782C81.3283 74.3049 81.787 74.0169 82.3097 73.8142C82.8217 73.6116 83.3763 73.5102 83.9737 73.5102C84.5497 73.5102 85.099 73.6116 85.6217 73.8142C86.1337 74.0169 86.5923 74.3049 86.9977 74.6782C87.3923 75.0409 87.707 75.4782 87.9417 75.9902C88.1657 76.4916 88.2777 77.0462 88.2777 77.6542ZM83.9897 80.6782C84.6083 80.6782 85.1737 80.5449 85.6857 80.2782C86.187 80.0009 86.587 79.6329 86.8857 79.1742C87.1737 78.7156 87.3177 78.2089 87.3177 77.6542C87.3177 77.0996 87.1683 76.5929 86.8697 76.1342C86.571 75.6756 86.1657 75.3076 85.6537 75.0302C85.131 74.7529 84.5657 74.6142 83.9577 74.6142C83.339 74.6142 82.7737 74.7529 82.2617 75.0302C81.7497 75.3076 81.3443 75.6756 81.0457 76.1342C80.747 76.5929 80.5977 77.0996 80.5977 77.6542C80.5977 78.2089 80.7523 78.7156 81.0617 79.1742C81.371 79.6222 81.7817 79.9849 82.2937 80.2622C82.795 80.5396 83.3603 80.6782 83.9897 80.6782ZM80.7417 67.5306C80.763 68.256 80.9657 68.896 81.3497 69.4506C81.7337 69.9946 82.2617 70.3786 82.9337 70.6026H88.1177V71.6906H79.7817V70.6666H81.7817C81.195 70.3786 80.7203 70 80.3577 69.5306C79.995 69.0506 79.7923 68.544 79.7497 68.0106C79.739 67.904 79.7337 67.8133 79.7337 67.7386C79.7337 67.6533 79.739 67.584 79.7497 67.5306H80.7417Z" fill="#7D8B9D"/>
</g>
<g filter="url(#filter2_f_539_108)">
<rect y="483" width="418" height="74" fill="white"/>
</g>
<path d="M27.472 527.145L21.952 509.481H24.904L27.52 518.625C28.096 520.665 28.528 522.369 29.128 524.409H29.248C29.872 522.369 30.28 520.665 30.856 518.625L33.448 509.481H36.304L30.784 527.145H27.472ZM38.314 527.145V513.945H41.098V527.145H38.314ZM39.706 511.473C38.674 511.473 38.002 510.825 38.002 509.817C38.002 508.833 38.674 508.185 39.706 508.185C40.714 508.185 41.434 508.833 41.434 509.817C41.434 510.825 40.714 511.473 39.706 511.473ZM50.7481 527.481C47.1481 527.481 44.3161 524.913 44.3161 520.569C44.3161 516.273 47.2681 513.609 50.3401 513.609C53.8201 513.609 55.7161 516.129 55.7161 519.873C55.7161 520.425 55.6681 520.953 55.5961 521.289H47.0281C47.2441 523.809 48.8281 525.297 51.1081 525.297C52.2841 525.297 53.2681 524.937 54.2521 524.313L55.2121 526.089C53.9881 526.905 52.4761 527.481 50.7481 527.481ZM46.9801 519.369H53.3161C53.3161 517.089 52.3081 515.793 50.3881 515.793C48.7321 515.793 47.2681 517.065 46.9801 519.369ZM60.8875 527.145L57.3355 513.945H60.1195L61.8715 521.097C62.1115 522.369 62.3275 523.593 62.5675 524.841H62.6875C62.9515 523.593 63.2155 522.345 63.5515 521.097L65.3995 513.945H67.9675L69.8635 521.097C70.1755 522.369 70.4395 523.593 70.7515 524.841H70.8475C71.1115 523.593 71.3275 522.369 71.6155 521.097L73.2955 513.945H75.9115L72.4795 527.145H69.1675L67.4875 520.641C67.1755 519.393 66.9355 518.193 66.6475 516.801H66.5275C66.2635 518.193 66.0235 519.417 65.7115 520.665L64.0795 527.145H60.8875ZM91.1686 527.481C86.7526 527.481 83.3206 524.169 83.3206 518.361C83.3206 512.601 86.8486 509.169 91.3126 509.169C93.5206 509.169 95.2246 510.225 96.3046 511.377L94.8166 513.177C93.9046 512.241 92.8006 511.593 91.3606 511.593C88.3126 511.593 86.2006 514.137 86.2006 518.265C86.2006 522.465 88.1686 525.033 91.2886 525.033C92.8966 525.033 94.1446 524.313 95.1766 523.161L96.6886 524.913C95.2726 526.569 93.4726 527.481 91.1686 527.481ZM102.676 527.481C100.42 527.481 98.8122 525.969 98.8122 523.641C98.8122 520.809 101.212 519.345 106.684 518.745C106.66 517.209 106.108 515.865 104.188 515.865C102.796 515.865 101.476 516.513 100.372 517.233L99.3402 515.337C100.684 514.497 102.556 513.609 104.668 513.609C107.956 513.609 109.468 515.697 109.468 519.225V527.145H107.188L106.972 525.657H106.876C105.676 526.689 104.26 527.481 102.676 527.481ZM103.54 525.273C104.692 525.273 105.604 524.745 106.684 523.737V520.521C102.772 520.977 101.476 521.961 101.476 523.449C101.476 524.745 102.364 525.273 103.54 525.273ZM116.961 527.481C115.137 527.481 113.265 526.713 111.993 525.657L113.289 523.857C114.465 524.769 115.593 525.369 117.033 525.369C118.593 525.369 119.337 524.601 119.337 523.593C119.337 522.417 117.849 521.865 116.433 521.337C114.657 520.665 112.713 519.729 112.713 517.473C112.713 515.265 114.489 513.609 117.441 513.609C119.193 513.609 120.657 514.329 121.713 515.169L120.417 516.873C119.505 516.225 118.569 515.721 117.489 515.721C116.025 515.721 115.353 516.441 115.353 517.353C115.353 518.481 116.625 518.913 118.089 519.441C119.937 520.137 121.953 520.977 121.953 523.449C121.953 525.681 120.201 527.481 116.961 527.481ZM130.412 527.481C126.812 527.481 123.98 524.913 123.98 520.569C123.98 516.273 126.932 513.609 130.004 513.609C133.484 513.609 135.38 516.129 135.38 519.873C135.38 520.425 135.332 520.953 135.26 521.289H126.692C126.908 523.809 128.492 525.297 130.772 525.297C131.948 525.297 132.932 524.937 133.916 524.313L134.876 526.089C133.652 526.905 132.14 527.481 130.412 527.481ZM126.644 519.369H132.98C132.98 517.089 131.972 515.793 130.052 515.793C128.396 515.793 126.932 517.065 126.644 519.369ZM149.181 527.481C146.733 527.481 144.501 526.521 142.893 524.889L144.525 522.945C145.773 524.217 147.525 525.033 149.229 525.033C151.341 525.033 152.541 524.049 152.541 522.537C152.541 520.929 151.341 520.425 149.709 519.729L147.261 518.649C145.557 517.953 143.685 516.609 143.685 514.041C143.685 511.257 146.109 509.169 149.469 509.169C151.557 509.169 153.501 510.033 154.821 511.401L153.381 513.153C152.277 512.193 151.029 511.593 149.469 511.593C147.669 511.593 146.517 512.457 146.517 513.849C146.517 515.361 147.933 515.937 149.373 516.537L151.797 517.545C153.885 518.433 155.397 519.729 155.397 522.321C155.397 525.153 153.045 527.481 149.181 527.481ZM162.145 527.481C159.193 527.481 158.137 525.609 158.137 522.849V516.153H156.217V514.089L158.281 513.945L158.593 510.297H160.897V513.945H164.353V516.153H160.897V522.873C160.897 524.433 161.473 525.273 162.841 525.273C163.297 525.273 163.849 525.105 164.257 524.937L164.761 526.977C164.017 527.217 163.129 527.481 162.145 527.481ZM171.108 527.481C168.3 527.481 167.052 525.609 167.052 522.249V513.945H169.812V521.913C169.812 524.193 170.484 525.081 172.044 525.081C173.268 525.081 174.108 524.505 175.212 523.113V513.945H177.972V527.145H175.692L175.476 525.153H175.404C174.204 526.545 172.932 527.481 171.108 527.481ZM186.663 527.481C183.351 527.481 181.239 524.937 181.239 520.569C181.239 516.273 183.951 513.609 186.879 513.609C188.391 513.609 189.375 514.185 190.431 515.097L190.311 512.913V508.041H193.095V527.145H190.815L190.599 525.681H190.527C189.519 526.689 188.151 527.481 186.663 527.481ZM187.335 525.177C188.415 525.177 189.375 524.673 190.311 523.569V517.137C189.351 516.249 188.415 515.913 187.431 515.913C185.583 515.913 184.095 517.689 184.095 520.521C184.095 523.521 185.271 525.177 187.335 525.177ZM197.844 532.665C197.172 532.665 196.644 532.569 196.188 532.401L196.716 530.241C196.956 530.337 197.34 530.433 197.676 530.433C199.092 530.433 199.956 529.377 200.436 527.961L200.7 527.049L195.468 513.945H198.3L200.724 520.737C201.132 521.913 201.516 523.233 201.948 524.481H202.068C202.38 523.257 202.74 521.961 203.076 520.737L205.212 513.945H207.9L203.052 527.961C202.02 530.769 200.628 532.665 197.844 532.665Z" fill="black"/>
</g>
<defs>
<filter id="filter0_d_539_108" x="17" y="0" width="88" height="162" filterUnits="userSpaceOnUse" color-interpolation-filters="sRGB">
<feFlood flood-opacity="0" result="BackgroundImageFix"/>
<feColorMatrix in="SourceAlpha" type="matrix" values="0 0 0 0 0 0 0 0 0 0 0 0 0 0 0 0 0 0 127 0" result="hardAlpha"/>
<feOffset dy="4"/>
<feGaussianBlur stdDeviation="2"/>
<feComposite in2="hardAlpha" operator="out"/>
<feColorMatrix type="matrix" values="0 0 0 0 0 0 0 0 0 0 0 0 0 0 0 0 0 0 0.25 0"/>
<feBlend mode="normal" in2="BackgroundImageFix" result="effect1_dropShadow_539_108"/>
<feBlend mode="normal" in="SourceGraphic" in2="effect1_dropShadow_539_108" result="shape"/>
</filter>
<filter id="filter1_d_539_108" x="17" y="0" width="88" height="162" filterUnits="userSpaceOnUse" color-interpolation-filters="sRGB">
<feFlood flood-opacity="0" result="BackgroundImageFix"/>
<feColorMatrix in="SourceAlpha" type="matrix" values="0 0 0 0 0 0 0 0 0 0 0 0 0 0 0 0 0 0 127 0" result="hardAlpha"/>
<feOffset dy="4"/>
<feGaussianBlur stdDeviation="2"/>
<feComposite in2="hardAlpha" operator="out"/>
<feColorMatrix type="matrix" values="0 0 0 0 0 0 0 0 0 0 0 0 0 0 0 0 0 0 0.25 0"/>
<feBlend mode="normal" in2="BackgroundImageFix" result="effect1_dropShadow_539_108"/>
<feBlend mode="normal" in="SourceGraphic" in2="effect1_dropShadow_539_108" result="shape"/>
</filter>
<filter id="filter2_f_539_108" x="-10" y="473" width="438" height="94" filterUnits="userSpaceOnUse" color-interpolation-filters="sRGB">
<feFlood flood-opacity="0" result="BackgroundImageFix"/>
<feBlend mode="normal" in="SourceGraphic" in2="BackgroundImageFix" result="shape"/>
<feGaussianBlur stdDeviation="5" result="effect1_foregroundBlur_539_108"/>
</filter>
<linearGradient id="paint0_linear_539_108" x1="593" y1="462.989" x2="152.129" y2="433.668" gradientUnits="userSpaceOnUse">
<stop stop-color="#3B5FB0"/>
<stop offset="1" stop-color="#EAEFF2"/>
</linearGradient>
</defs>
</svg>
