<svg width="526" height="593" viewBox="0 0 526 593" fill="none" xmlns="http://www.w3.org/2000/svg">
<mask id="mask0_539_112" style="mask-type:alpha" maskUnits="userSpaceOnUse" x="0" y="0" width="526" height="593">
<rect width="526" height="593" fill="#D9D9D9"/>
</mask>
<g mask="url(#mask0_539_112)">
<rect y="593" width="593" height="526" transform="rotate(-90 0 593)" fill="url(#paint0_linear_539_112)"/>
<g filter="url(#filter0_f_539_112)">
<rect y="483" width="418" height="74" fill="white"/>
</g>
<path d="M27.472 527.145L21.952 509.481H24.904L27.52 518.625C28.096 520.665 28.528 522.369 29.128 524.409H29.248C29.872 522.369 30.28 520.665 30.856 518.625L33.448 509.481H36.304L30.784 527.145H27.472ZM38.314 527.145V513.945H41.098V527.145H38.314ZM39.706 511.473C38.674 511.473 38.002 510.825 38.002 509.817C38.002 508.833 38.674 508.185 39.706 508.185C40.714 508.185 41.434 508.833 41.434 509.817C41.434 510.825 40.714 511.473 39.706 511.473ZM50.7481 527.481C47.1481 527.481 44.3161 524.913 44.3161 520.569C44.3161 516.273 47.2681 513.609 50.3401 513.609C53.8201 513.609 55.7161 516.129 55.7161 519.873C55.7161 520.425 55.6681 520.953 55.5961 521.289H47.0281C47.2441 523.809 48.8281 525.297 51.1081 525.297C52.2841 525.297 53.2681 524.937 54.2521 524.313L55.2121 526.089C53.9881 526.905 52.4761 527.481 50.7481 527.481ZM46.9801 519.369H53.3161C53.3161 517.089 52.3081 515.793 50.3881 515.793C48.7321 515.793 47.2681 517.065 46.9801 519.369ZM60.8875 527.145L57.3355 513.945H60.1195L61.8715 521.097C62.1115 522.369 62.3275 523.593 62.5675 524.841H62.6875C62.9515 523.593 63.2155 522.345 63.5515 521.097L65.3995 513.945H67.9675L69.8635 521.097C70.1755 522.369 70.4395 523.593 70.7515 524.841H70.8475C71.1115 523.593 71.3275 522.369 71.6155 521.097L73.2955 513.945H75.9115L72.4795 527.145H69.1675L67.4875 520.641C67.1755 519.393 66.9355 518.193 66.6475 516.801H66.5275C66.2635 518.193 66.0235 519.417 65.7115 520.665L64.0795 527.145H60.8875ZM91.1686 527.481C86.7526 527.481 83.3206 524.169 83.3206 518.361C83.3206 512.601 86.8486 509.169 91.3126 509.169C93.5206 509.169 95.2246 510.225 96.3046 511.377L94.8166 513.177C93.9046 512.241 92.8006 511.593 91.3606 511.593C88.3126 511.593 86.2006 514.137 86.2006 518.265C86.2006 522.465 88.1686 525.033 91.2886 525.033C92.8966 525.033 94.1446 524.313 95.1766 523.161L96.6886 524.913C95.2726 526.569 93.4726 527.481 91.1686 527.481ZM102.676 527.481C100.42 527.481 98.8122 525.969 98.8122 523.641C98.8122 520.809 101.212 519.345 106.684 518.745C106.66 517.209 106.108 515.865 104.188 515.865C102.796 515.865 101.476 516.513 100.372 517.233L99.3402 515.337C100.684 514.497 102.556 513.609 104.668 513.609C107.956 513.609 109.468 515.697 109.468 519.225V527.145H107.188L106.972 525.657H106.876C105.676 526.689 104.26 527.481 102.676 527.481ZM103.54 525.273C104.692 525.273 105.604 524.745 106.684 523.737V520.521C102.772 520.977 101.476 521.961 101.476 523.449C101.476 524.745 102.364 525.273 103.54 525.273ZM116.961 527.481C115.137 527.481 113.265 526.713 111.993 525.657L113.289 523.857C114.465 524.769 115.593 525.369 117.033 525.369C118.593 525.369 119.337 524.601 119.337 523.593C119.337 522.417 117.849 521.865 116.433 521.337C114.657 520.665 112.713 519.729 112.713 517.473C112.713 515.265 114.489 513.609 117.441 513.609C119.193 513.609 120.657 514.329 121.713 515.169L120.417 516.873C119.505 516.225 118.569 515.721 117.489 515.721C116.025 515.721 115.353 516.441 115.353 517.353C115.353 518.481 116.625 518.913 118.089 519.441C119.937 520.137 121.953 520.977 121.953 523.449C121.953 525.681 120.201 527.481 116.961 527.481ZM130.412 527.481C126.812 527.481 123.98 524.913 123.98 520.569C123.98 516.273 126.932 513.609 130.004 513.609C133.484 513.609 135.38 516.129 135.38 519.873C135.38 520.425 135.332 520.953 135.26 521.289H126.692C126.908 523.809 128.492 525.297 130.772 525.297C131.948 525.297 132.932 524.937 133.916 524.313L134.876 526.089C133.652 526.905 132.14 527.481 130.412 527.481ZM126.644 519.369H132.98C132.98 517.089 131.972 515.793 130.052 515.793C128.396 515.793 126.932 517.065 126.644 519.369ZM149.181 527.481C146.733 527.481 144.501 526.521 142.893 524.889L144.525 522.945C145.773 524.217 147.525 525.033 149.229 525.033C151.341 525.033 152.541 524.049 152.541 522.537C152.541 520.929 151.341 520.425 149.709 519.729L147.261 518.649C145.557 517.953 143.685 516.609 143.685 514.041C143.685 511.257 146.109 509.169 149.469 509.169C151.557 509.169 153.501 510.033 154.821 511.401L153.381 513.153C152.277 512.193 151.029 511.593 149.469 511.593C147.669 511.593 146.517 512.457 146.517 513.849C146.517 515.361 147.933 515.937 149.373 516.537L151.797 517.545C153.885 518.433 155.397 519.729 155.397 522.321C155.397 525.153 153.045 527.481 149.181 527.481ZM162.145 527.481C159.193 527.481 158.137 525.609 158.137 522.849V516.153H156.217V514.089L158.281 513.945L158.593 510.297H160.897V513.945H164.353V516.153H160.897V522.873C160.897 524.433 161.473 525.273 162.841 525.273C163.297 525.273 163.849 525.105 164.257 524.937L164.761 526.977C164.017 527.217 163.129 527.481 162.145 527.481ZM171.108 527.481C168.3 527.481 167.052 525.609 167.052 522.249V513.945H169.812V521.913C169.812 524.193 170.484 525.081 172.044 525.081C173.268 525.081 174.108 524.505 175.212 523.113V513.945H177.972V527.145H175.692L175.476 525.153H175.404C174.204 526.545 172.932 527.481 171.108 527.481ZM186.663 527.481C183.351 527.481 181.239 524.937 181.239 520.569C181.239 516.273 183.951 513.609 186.879 513.609C188.391 513.609 189.375 514.185 190.431 515.097L190.311 512.913V508.041H193.095V527.145H190.815L190.599 525.681H190.527C189.519 526.689 188.151 527.481 186.663 527.481ZM187.335 525.177C188.415 525.177 189.375 524.673 190.311 523.569V517.137C189.351 516.249 188.415 515.913 187.431 515.913C185.583 515.913 184.095 517.689 184.095 520.521C184.095 523.521 185.271 525.177 187.335 525.177ZM197.844 532.665C197.172 532.665 196.644 532.569 196.188 532.401L196.716 530.241C196.956 530.337 197.34 530.433 197.676 530.433C199.092 530.433 199.956 529.377 200.436 527.961L200.7 527.049L195.468 513.945H198.3L200.724 520.737C201.132 521.913 201.516 523.233 201.948 524.481H202.068C202.38 523.257 202.74 521.961 203.076 520.737L205.212 513.945H207.9L203.052 527.961C202.02 530.769 200.628 532.665 197.844 532.665Z" fill="black"/>
<path d="M51.96 240V214.88H60.04C62.8 214.88 64.9067 215.58 66.36 216.98C67.8267 218.367 68.56 220.253 68.56 222.64C68.56 225 67.8267 226.873 66.36 228.26C64.9067 229.633 62.8 230.32 60.04 230.32H55.12V240H51.96ZM55.12 227.6H60.04C61.7867 227.6 63.1067 227.153 64 226.26C64.9067 225.367 65.36 224.16 65.36 222.64C65.36 221.093 64.9067 219.86 64 218.94C63.1067 218.02 61.7867 217.56 60.04 217.56H55.12V227.6ZM80.8284 240.48C79.1751 240.48 77.6951 240.06 76.3884 239.22C75.0951 238.367 74.0684 237.187 73.3084 235.68C72.5618 234.173 72.1884 232.44 72.1884 230.48C72.1884 228.387 72.5618 226.587 73.3084 225.08C74.0551 223.573 75.0751 222.42 76.3684 221.62C77.6751 220.807 79.1618 220.4 80.8284 220.4C82.2818 220.4 83.5218 220.693 84.5484 221.28C85.5751 221.867 86.4018 222.66 87.0284 223.66C87.6551 224.66 88.0884 225.793 88.3284 227.06C88.5818 228.313 88.6551 229.613 88.5484 230.96H74.7084V229.04H86.4884L85.5684 229.64C85.6084 228.853 85.5618 228.067 85.4284 227.28C85.3084 226.493 85.0751 225.773 84.7284 225.12C84.3818 224.453 83.8951 223.92 83.2684 223.52C82.6418 223.12 81.8418 222.92 80.8684 222.92C79.6418 222.92 78.6151 223.233 77.7884 223.86C76.9618 224.487 76.3418 225.313 75.9284 226.34C75.5151 227.353 75.3084 228.453 75.3084 229.64V230.92C75.3084 232.253 75.5084 233.447 75.9084 234.5C76.3218 235.553 76.9351 236.387 77.7484 237C78.5618 237.613 79.5884 237.92 80.8284 237.92C82.0684 237.92 83.0884 237.62 83.8884 237.02C84.6884 236.42 85.1751 235.533 85.3484 234.36H88.5884C88.3884 235.627 87.9351 236.72 87.2284 237.64C86.5218 238.547 85.6218 239.247 84.5284 239.74C83.4351 240.233 82.2018 240.48 80.8284 240.48ZM100.615 240.48C99.5753 240.48 98.642 240.28 97.8153 239.88C96.9886 239.48 96.3353 238.88 95.8553 238.08C95.3753 237.28 95.1353 236.28 95.1353 235.08V215.56H98.2153V235C98.2153 236.973 99.1353 237.96 100.975 237.96C101.522 237.96 102.049 237.9 102.555 237.78C103.075 237.66 103.655 237.48 104.295 237.24L104.735 239.48C104.055 239.773 103.375 240.013 102.695 240.2C102.029 240.387 101.335 240.48 100.615 240.48ZM92.0553 223.04V220.88H104.255V223.04H92.0553ZM119.267 240V212.72H122.387V240H119.267ZM137.398 240.48C135.678 240.48 134.144 240.1 132.798 239.34C131.464 238.58 130.411 237.453 129.638 235.96C128.864 234.467 128.478 232.627 128.478 230.44C128.478 228.24 128.864 226.4 129.638 224.92C130.411 223.427 131.464 222.3 132.798 221.54C134.144 220.78 135.678 220.4 137.398 220.4C139.104 220.4 140.624 220.78 141.958 221.54C143.304 222.3 144.358 223.427 145.118 224.92C145.891 226.4 146.278 228.24 146.278 230.44C146.278 232.627 145.891 234.467 145.118 235.96C144.358 237.453 143.304 238.58 141.958 239.34C140.624 240.1 139.104 240.48 137.398 240.48ZM137.318 237.76C138.558 237.76 139.611 237.467 140.478 236.88C141.344 236.28 141.998 235.433 142.438 234.34C142.891 233.247 143.118 231.947 143.118 230.44C143.118 228.16 142.644 226.367 141.698 225.06C140.751 223.74 139.344 223.08 137.478 223.08C136.224 223.08 135.164 223.38 134.298 223.98C133.444 224.567 132.791 225.413 132.338 226.52C131.898 227.613 131.678 228.92 131.678 230.44C131.678 232.693 132.151 234.48 133.098 235.8C134.058 237.107 135.464 237.76 137.318 237.76ZM149.033 220.88H152.593L158.592 237.32H158.153L164.153 220.88H167.713L160.072 240H156.673L149.033 220.88ZM179.11 240.48C177.456 240.48 175.976 240.06 174.67 239.22C173.376 238.367 172.35 237.187 171.59 235.68C170.843 234.173 170.47 232.44 170.47 230.48C170.47 228.387 170.843 226.587 171.59 225.08C172.336 223.573 173.356 222.42 174.65 221.62C175.956 220.807 177.443 220.4 179.11 220.4C180.563 220.4 181.803 220.693 182.83 221.28C183.856 221.867 184.683 222.66 185.31 223.66C185.936 224.66 186.37 225.793 186.61 227.06C186.863 228.313 186.936 229.613 186.83 230.96H172.99V229.04H184.77L183.85 229.64C183.89 228.853 183.843 228.067 183.71 227.28C183.59 226.493 183.356 225.773 183.01 225.12C182.663 224.453 182.176 223.92 181.55 223.52C180.923 223.12 180.123 222.92 179.15 222.92C177.923 222.92 176.896 223.233 176.07 223.86C175.243 224.487 174.623 225.313 174.21 226.34C173.796 227.353 173.59 228.453 173.59 229.64V230.92C173.59 232.253 173.79 233.447 174.19 234.5C174.603 235.553 175.216 236.387 176.03 237C176.843 237.613 177.87 237.92 179.11 237.92C180.35 237.92 181.37 237.62 182.17 237.02C182.97 236.42 183.456 235.533 183.63 234.36H186.87C186.67 235.627 186.216 236.72 185.51 237.64C184.803 238.547 183.903 239.247 182.81 239.74C181.716 240.233 180.483 240.48 179.11 240.48ZM193.017 240V220.84H196.137V240H193.017ZM195.177 231.36C195.177 228.933 195.41 226.92 195.877 225.32C196.343 223.707 197.023 222.507 197.917 221.72C198.823 220.92 199.923 220.52 201.217 220.52C201.643 220.52 202.03 220.553 202.377 220.62C202.737 220.673 203.097 220.76 203.457 220.88L203.257 223.96C202.883 223.84 202.477 223.74 202.037 223.66C201.597 223.567 201.203 223.52 200.857 223.52C199.723 223.52 198.81 223.847 198.117 224.5C197.423 225.14 196.917 226.047 196.597 227.22C196.29 228.393 196.137 229.773 196.137 231.36H195.177ZM215.202 242.88L225.242 210.76H228.442L218.322 242.88H215.202ZM249.412 217.56V214.88H268.972V217.56H260.032L260.732 216.84V240H257.612V216.84L258.312 217.56H249.412ZM281.614 240L281.214 235.8V227.6C281.214 225.88 280.848 224.647 280.114 223.9C279.381 223.14 278.281 222.76 276.814 222.76C275.988 222.76 275.234 222.88 274.554 223.12C273.888 223.36 273.354 223.733 272.954 224.24C272.568 224.733 272.374 225.373 272.374 226.16H268.894C268.894 224.773 269.234 223.66 269.914 222.82C270.594 221.967 271.528 221.353 272.714 220.98C273.914 220.593 275.281 220.4 276.814 220.4C278.281 220.4 279.581 220.647 280.714 221.14C281.848 221.633 282.734 222.42 283.374 223.5C284.014 224.567 284.334 225.96 284.334 227.68V240H281.614ZM275.094 240.48C273.521 240.48 272.221 240.2 271.194 239.64C270.168 239.08 269.401 238.353 268.894 237.46C268.388 236.567 268.134 235.627 268.134 234.64C268.134 233.347 268.454 232.293 269.094 231.48C269.748 230.667 270.634 230.073 271.754 229.7C272.874 229.313 274.134 229.12 275.534 229.12C276.534 229.12 277.534 229.22 278.534 229.42C279.548 229.62 280.534 229.893 281.494 230.24V232.2C280.694 231.88 279.788 231.627 278.774 231.44C277.774 231.253 276.854 231.16 276.014 231.16C274.734 231.16 273.654 231.427 272.774 231.96C271.894 232.48 271.454 233.373 271.454 234.64C271.454 235.573 271.788 236.373 272.454 237.04C273.134 237.707 274.214 238.04 275.694 238.04C276.734 238.04 277.668 237.8 278.494 237.32C279.334 236.827 279.994 236.213 280.474 235.48C280.968 234.747 281.214 234.013 281.214 233.28H281.974C281.974 234.56 281.694 235.747 281.134 236.84C280.588 237.933 279.801 238.813 278.774 239.48C277.748 240.147 276.521 240.48 275.094 240.48ZM291.806 240V212.72H294.926V240H291.806ZM294.446 229.04L304.206 220.88H308.566L294.446 232.36V229.04ZM305.166 240L296.086 227.92L299.246 227.36L309.006 240H305.166ZM320.985 240.48C319.331 240.48 317.851 240.06 316.545 239.22C315.251 238.367 314.225 237.187 313.465 235.68C312.718 234.173 312.345 232.44 312.345 230.48C312.345 228.387 312.718 226.587 313.465 225.08C314.211 223.573 315.231 222.42 316.525 221.62C317.831 220.807 319.318 220.4 320.985 220.4C322.438 220.4 323.678 220.693 324.705 221.28C325.731 221.867 326.558 222.66 327.185 223.66C327.811 224.66 328.245 225.793 328.485 227.06C328.738 228.313 328.811 229.613 328.705 230.96H314.865V229.04H326.645L325.725 229.64C325.765 228.853 325.718 228.067 325.585 227.28C325.465 226.493 325.231 225.773 324.885 225.12C324.538 224.453 324.051 223.92 323.425 223.52C322.798 223.12 321.998 222.92 321.025 222.92C319.798 222.92 318.771 223.233 317.945 223.86C317.118 224.487 316.498 225.313 316.085 226.34C315.671 227.353 315.465 228.453 315.465 229.64V230.92C315.465 232.253 315.665 233.447 316.065 234.5C316.478 235.553 317.091 236.387 317.905 237C318.718 237.613 319.745 237.92 320.985 237.92C322.225 237.92 323.245 237.62 324.045 237.02C324.845 236.42 325.331 235.533 325.505 234.36H328.745C328.545 235.627 328.091 236.72 327.385 237.64C326.678 238.547 325.778 239.247 324.685 239.74C323.591 240.233 322.358 240.48 320.985 240.48ZM351.104 240.48C349.57 240.48 348.137 240.067 346.804 239.24C345.484 238.413 344.417 237.247 343.604 235.74C342.79 234.233 342.384 232.453 342.384 230.4C342.384 228.293 342.79 226.493 343.604 225C344.417 223.507 345.484 222.367 346.804 221.58C348.137 220.793 349.57 220.4 351.104 220.4C352.184 220.4 353.15 220.567 354.004 220.9C354.87 221.22 355.624 221.667 356.264 222.24C356.904 222.813 357.43 223.467 357.844 224.2C358.27 224.92 358.584 225.68 358.784 226.48L355.584 226.76C355.25 225.653 354.69 224.78 353.904 224.14C353.13 223.487 352.184 223.16 351.064 223.16C350.117 223.16 349.224 223.433 348.384 223.98C347.557 224.513 346.884 225.32 346.364 226.4C345.844 227.467 345.584 228.8 345.584 230.4C345.584 231.88 345.817 233.167 346.284 234.26C346.764 235.34 347.417 236.18 348.244 236.78C349.07 237.38 350.01 237.68 351.064 237.68C352.544 237.68 353.664 237.32 354.424 236.6C355.197 235.867 355.584 234.853 355.584 233.56H358.784C358.784 234.893 358.47 236.08 357.844 237.12C357.217 238.16 356.324 238.98 355.164 239.58C354.017 240.18 352.664 240.48 351.104 240.48ZM376.849 240L376.449 235.8V227.6C376.449 225.88 376.082 224.647 375.349 223.9C374.615 223.14 373.515 222.76 372.049 222.76C371.222 222.76 370.469 222.88 369.789 223.12C369.122 223.36 368.589 223.733 368.189 224.24C367.802 224.733 367.609 225.373 367.609 226.16H364.129C364.129 224.773 364.469 223.66 365.149 222.82C365.829 221.967 366.762 221.353 367.949 220.98C369.149 220.593 370.515 220.4 372.049 220.4C373.515 220.4 374.815 220.647 375.949 221.14C377.082 221.633 377.969 222.42 378.609 223.5C379.249 224.567 379.569 225.96 379.569 227.68V240H376.849ZM370.329 240.48C368.755 240.48 367.455 240.2 366.429 239.64C365.402 239.08 364.635 238.353 364.129 237.46C363.622 236.567 363.369 235.627 363.369 234.64C363.369 233.347 363.689 232.293 364.329 231.48C364.982 230.667 365.869 230.073 366.989 229.7C368.109 229.313 369.369 229.12 370.769 229.12C371.769 229.12 372.769 229.22 373.769 229.42C374.782 229.62 375.769 229.893 376.729 230.24V232.2C375.929 231.88 375.022 231.627 374.009 231.44C373.009 231.253 372.089 231.16 371.249 231.16C369.969 231.16 368.889 231.427 368.009 231.96C367.129 232.48 366.689 233.373 366.689 234.64C366.689 235.573 367.022 236.373 367.689 237.04C368.369 237.707 369.449 238.04 370.929 238.04C371.969 238.04 372.902 237.8 373.729 237.32C374.569 236.827 375.229 236.213 375.709 235.48C376.202 234.747 376.449 234.013 376.449 233.28H377.209C377.209 234.56 376.929 235.747 376.369 236.84C375.822 237.933 375.035 238.813 374.009 239.48C372.982 240.147 371.755 240.48 370.329 240.48ZM387.04 240V220.84H390.16V240H387.04ZM389.2 231.36C389.2 228.933 389.433 226.92 389.9 225.32C390.367 223.707 391.047 222.507 391.94 221.72C392.847 220.92 393.947 220.52 395.24 220.52C395.667 220.52 396.053 220.553 396.4 220.62C396.76 220.673 397.12 220.76 397.48 220.88L397.28 223.96C396.907 223.84 396.5 223.74 396.06 223.66C395.62 223.567 395.227 223.52 394.88 223.52C393.747 223.52 392.833 223.847 392.14 224.5C391.447 225.14 390.94 226.047 390.62 227.22C390.313 228.393 390.16 229.773 390.16 231.36H389.2ZM408.133 240.48C406.48 240.48 405 240.06 403.693 239.22C402.4 238.367 401.373 237.187 400.613 235.68C399.866 234.173 399.493 232.44 399.493 230.48C399.493 228.387 399.866 226.587 400.613 225.08C401.36 223.573 402.38 222.42 403.673 221.62C404.98 220.807 406.466 220.4 408.133 220.4C409.586 220.4 410.826 220.693 411.853 221.28C412.88 221.867 413.706 222.66 414.333 223.66C414.96 224.66 415.393 225.793 415.633 227.06C415.886 228.313 415.96 229.613 415.853 230.96H402.013V229.04H413.793L412.873 229.64C412.913 228.853 412.866 228.067 412.733 227.28C412.613 226.493 412.38 225.773 412.033 225.12C411.686 224.453 411.2 223.92 410.573 223.52C409.946 223.12 409.146 222.92 408.173 222.92C406.946 222.92 405.92 223.233 405.093 223.86C404.266 224.487 403.646 225.313 403.233 226.34C402.82 227.353 402.613 228.453 402.613 229.64V230.92C402.613 232.253 402.813 233.447 403.213 234.5C403.626 235.553 404.24 236.387 405.053 237C405.866 237.613 406.893 237.92 408.133 237.92C409.373 237.92 410.393 237.62 411.193 237.02C411.993 236.42 412.48 235.533 412.653 234.36H415.893C415.693 235.627 415.24 236.72 414.533 237.64C413.826 238.547 412.926 239.247 411.833 239.74C410.74 240.233 409.506 240.48 408.133 240.48ZM429.772 242.88L439.812 210.76H443.012L432.892 242.88H429.772ZM60.76 287.48C58.5467 287.48 56.64 286.927 55.04 285.82C53.44 284.7 52.2067 283.153 51.34 281.18C50.4733 279.193 50.04 276.893 50.04 274.28C50.04 271.493 50.5067 269.147 51.44 267.24C52.3867 265.333 53.6667 263.893 55.28 262.92C56.9067 261.933 58.7333 261.44 60.76 261.44C63.44 261.44 65.5933 262.113 67.22 263.46C68.86 264.793 69.9867 266.533 70.6 268.68L67.24 269.36C66.72 267.8 65.8867 266.56 64.74 265.64C63.6067 264.707 62.28 264.24 60.76 264.24C59.44 264.24 58.22 264.62 57.1 265.38C55.9933 266.127 55.1 267.247 54.42 268.74C53.74 270.233 53.4 272.08 53.4 274.28C53.4 276.28 53.6667 278.06 54.2 279.62C54.7467 281.18 55.56 282.407 56.64 283.3C57.7333 284.193 59.1067 284.64 60.76 284.64C62.7467 284.64 64.32 284.107 65.48 283.04C66.6533 281.973 67.24 280.573 67.24 278.84H70.64C70.64 280.64 70.2267 282.187 69.4 283.48C68.5733 284.76 67.4133 285.747 65.92 286.44C64.44 287.133 62.72 287.48 60.76 287.48ZM83.4913 287.48C81.7713 287.48 80.2379 287.1 78.8913 286.34C77.5579 285.58 76.5046 284.453 75.7313 282.96C74.9579 281.467 74.5713 279.627 74.5713 277.44C74.5713 275.24 74.9579 273.4 75.7313 271.92C76.5046 270.427 77.5579 269.3 78.8913 268.54C80.2379 267.78 81.7713 267.4 83.4913 267.4C85.1979 267.4 86.7179 267.78 88.0513 268.54C89.3979 269.3 90.4513 270.427 91.2113 271.92C91.9846 273.4 92.3713 275.24 92.3713 277.44C92.3713 279.627 91.9846 281.467 91.2113 282.96C90.4513 284.453 89.3979 285.58 88.0513 286.34C86.7179 287.1 85.1979 287.48 83.4913 287.48ZM83.4113 284.76C84.6513 284.76 85.7046 284.467 86.5713 283.88C87.4379 283.28 88.0913 282.433 88.5313 281.34C88.9846 280.247 89.2113 278.947 89.2113 277.44C89.2113 275.16 88.7379 273.367 87.7913 272.06C86.8446 270.74 85.4379 270.08 83.5713 270.08C82.3179 270.08 81.2579 270.38 80.3913 270.98C79.5379 271.567 78.8846 272.413 78.4313 273.52C77.9913 274.613 77.7713 275.92 77.7713 277.44C77.7713 279.693 78.2446 281.48 79.1913 282.8C80.1513 284.107 81.5579 284.76 83.4113 284.76ZM112.046 287V275.76C112.046 273.933 111.606 272.547 110.726 271.6C109.86 270.64 108.673 270.16 107.166 270.16C106.02 270.16 105.026 270.473 104.186 271.1C103.346 271.727 102.7 272.627 102.246 273.8C101.793 274.96 101.566 276.347 101.566 277.96H100.366C100.366 275.733 100.66 273.833 101.246 272.26C101.833 270.687 102.686 269.487 103.806 268.66C104.94 267.82 106.313 267.4 107.926 267.4C109.433 267.4 110.72 267.74 111.786 268.42C112.866 269.087 113.693 270.047 114.266 271.3C114.84 272.553 115.126 274.04 115.126 275.76V287H112.046ZM98.4463 287V267.88H101.126L101.566 272.28V287H98.4463ZM129.307 287.48C127.774 287.48 126.34 287.067 125.007 286.24C123.687 285.413 122.62 284.247 121.807 282.74C120.994 281.233 120.587 279.453 120.587 277.4C120.587 275.293 120.994 273.493 121.807 272C122.62 270.507 123.687 269.367 125.007 268.58C126.34 267.793 127.774 267.4 129.307 267.4C130.387 267.4 131.354 267.567 132.207 267.9C133.074 268.22 133.827 268.667 134.467 269.24C135.107 269.813 135.634 270.467 136.047 271.2C136.474 271.92 136.787 272.68 136.987 273.48L133.787 273.76C133.454 272.653 132.894 271.78 132.107 271.14C131.334 270.487 130.387 270.16 129.267 270.16C128.32 270.16 127.427 270.433 126.587 270.98C125.76 271.513 125.087 272.32 124.567 273.4C124.047 274.467 123.787 275.8 123.787 277.4C123.787 278.88 124.02 280.167 124.487 281.26C124.967 282.34 125.62 283.18 126.447 283.78C127.274 284.38 128.214 284.68 129.267 284.68C130.747 284.68 131.867 284.32 132.627 283.6C133.4 282.867 133.787 281.853 133.787 280.56H136.987C136.987 281.893 136.674 283.08 136.047 284.12C135.42 285.16 134.527 285.98 133.367 286.58C132.22 287.18 130.867 287.48 129.307 287.48ZM149.852 287.48C148.199 287.48 146.719 287.06 145.412 286.22C144.119 285.367 143.092 284.187 142.332 282.68C141.585 281.173 141.212 279.44 141.212 277.48C141.212 275.387 141.585 273.587 142.332 272.08C143.079 270.573 144.099 269.42 145.392 268.62C146.699 267.807 148.185 267.4 149.852 267.4C151.305 267.4 152.545 267.693 153.572 268.28C154.599 268.867 155.425 269.66 156.052 270.66C156.679 271.66 157.112 272.793 157.352 274.06C157.605 275.313 157.679 276.613 157.572 277.96H143.732V276.04H155.512L154.592 276.64C154.632 275.853 154.585 275.067 154.452 274.28C154.332 273.493 154.099 272.773 153.752 272.12C153.405 271.453 152.919 270.92 152.292 270.52C151.665 270.12 150.865 269.92 149.892 269.92C148.665 269.92 147.639 270.233 146.812 270.86C145.985 271.487 145.365 272.313 144.952 273.34C144.539 274.353 144.332 275.453 144.332 276.64V277.92C144.332 279.253 144.532 280.447 144.932 281.5C145.345 282.553 145.959 283.387 146.772 284C147.585 284.613 148.612 284.92 149.852 284.92C151.092 284.92 152.112 284.62 152.912 284.02C153.712 283.42 154.199 282.533 154.372 281.36H157.612C157.412 282.627 156.959 283.72 156.252 284.64C155.545 285.547 154.645 286.247 153.552 286.74C152.459 287.233 151.225 287.48 149.852 287.48ZM163.759 287V267.84H166.879V287H163.759ZM165.919 278.36C165.919 275.933 166.152 273.92 166.619 272.32C167.085 270.707 167.765 269.507 168.659 268.72C169.565 267.92 170.665 267.52 171.959 267.52C172.385 267.52 172.772 267.553 173.119 267.62C173.479 267.673 173.839 267.76 174.199 267.88L173.999 270.96C173.625 270.84 173.219 270.74 172.779 270.66C172.339 270.567 171.945 270.52 171.599 270.52C170.465 270.52 169.552 270.847 168.859 271.5C168.165 272.14 167.659 273.047 167.339 274.22C167.032 275.393 166.879 276.773 166.879 278.36H165.919ZM191.812 287V275.76C191.812 273.933 191.372 272.547 190.492 271.6C189.625 270.64 188.439 270.16 186.932 270.16C185.785 270.16 184.792 270.473 183.952 271.1C183.112 271.727 182.465 272.627 182.012 273.8C181.559 274.96 181.332 276.347 181.332 277.96H180.132C180.132 275.733 180.425 273.833 181.012 272.26C181.599 270.687 182.452 269.487 183.572 268.66C184.705 267.82 186.079 267.4 187.692 267.4C189.199 267.4 190.485 267.74 191.552 268.42C192.632 269.087 193.459 270.047 194.032 271.3C194.605 272.553 194.892 274.04 194.892 275.76V287H191.812ZM178.212 287V267.88H180.892L181.332 272.28V287H178.212Z" fill="white"/>
</g>
<defs>
<filter id="filter0_f_539_112" x="-10" y="473" width="438" height="94" filterUnits="userSpaceOnUse" color-interpolation-filters="sRGB">
<feFlood flood-opacity="0" result="BackgroundImageFix"/>
<feBlend mode="normal" in="SourceGraphic" in2="BackgroundImageFix" result="shape"/>
<feGaussianBlur stdDeviation="5" result="effect1_foregroundBlur_539_112"/>
</filter>
<linearGradient id="paint0_linear_539_112" x1="-51.5526" y1="384.047" x2="262.207" y2="1450.33" gradientUnits="userSpaceOnUse">
<stop stop-color="#96AF88"/>
<stop offset="0.995459" stop-color="#96AF88" stop-opacity="0.45"/>
</linearGradient>
</defs>
</svg>
