<svg width="209" height="217" viewBox="0 0 209 217" fill="none" xmlns="http://www.w3.org/2000/svg">
<path d="M65.0052 172.915H3.6281C3.6281 172.915 1.83044 112.93 6.7098 104.599C11.5892 96.2677 44.4606 137.091 45.4878 93.2129C46.5151 49.3353 23.9159 59.6104 23.9159 64.6091C23.9159 69.6078 9.53469 81.8269 4.65533 69.6078C-0.224022 57.3887 3.11448 5.7353 3.11448 5.7353C3.11448 5.7353 48.8264 2.40282 65.0053 5.7353C81.1842 9.06778 50.624 19.0652 57.8146 36.283C65.0053 53.5009 88.118 51.2792 104.811 43.2257C121.503 35.1722 94.0246 17.399 100.188 7.40154C106.351 -2.5959 164.904 4.34677 164.904 4.34677V64.6091C166.183 66.5476 164.39 73.4957 175.176 71.5518C185.962 69.6078 180.435 55.1361 192.639 57.9441C204.843 60.7522 215.986 113.576 196.154 116.54C176.322 119.504 181.339 101.544 172.351 101.822C163.363 102.1 166.444 106.821 166.444 106.821L164.904 171.804L108.406 172.915C108.406 172.915 96.079 177.08 98.1335 183.468C100.188 189.855 113.028 192.354 112.772 196.52C112.515 200.685 109.947 203.74 106.865 210.683C103.783 217.626 65.0052 214.571 65.0052 212.627C65.0052 210.683 53.7057 200.13 55.7602 194.854C57.8146 189.577 63.7212 191.521 69.1142 186.245C74.5071 180.968 65.0052 172.915 65.0052 172.915Z" stroke="black" stroke-width="3"/>
<path d="M65.0052 172.915H3.6281C3.6281 172.915 1.83044 112.93 6.7098 104.599C11.5892 96.2677 44.4606 137.091 45.4878 93.2129C46.5151 49.3353 23.9159 59.6104 23.9159 64.6091C23.9159 69.6078 9.53469 81.8269 4.65533 69.6078C-0.224022 57.3887 3.11448 5.7353 3.11448 5.7353C3.11448 5.7353 48.8264 2.40282 65.0053 5.7353C81.1842 9.06778 50.624 19.0652 57.8146 36.283C65.0053 53.5009 88.118 51.2792 104.811 43.2257C121.503 35.1722 94.0246 17.399 100.188 7.40154C106.351 -2.5959 164.904 4.34677 164.904 4.34677V64.6091C166.183 66.5476 164.39 73.4957 175.176 71.5518C185.962 69.6078 180.435 55.1361 192.639 57.9441C204.843 60.7522 215.986 113.576 196.154 116.54C176.322 119.504 181.339 101.544 172.351 101.822C163.363 102.1 166.444 106.821 166.444 106.821L164.904 171.804L108.406 172.915C108.406 172.915 96.079 177.08 98.1335 183.468C100.188 189.855 113.028 192.354 112.772 196.52C112.515 200.685 109.947 203.74 106.865 210.683C103.783 217.626 65.0052 214.571 65.0052 212.627C65.0052 210.683 53.7057 200.13 55.7602 194.854C57.8146 189.577 63.7212 191.521 69.1142 186.245C74.5071 180.968 65.0052 172.915 65.0052 172.915Z" stroke="black" stroke-width="3"/>
<path d="M29.832 153V152.104H31.288V131.496H29.832V130.6H34.76C35.7733 130.6 36.7013 131.005 37.544 131.816C38.3867 132.616 39.064 133.832 39.576 135.464C40.088 137.096 40.344 139.149 40.344 141.624C40.344 144.12 40.088 146.216 39.576 147.912C39.064 149.597 38.3813 150.867 37.528 151.72C36.6853 152.573 35.7627 153 34.76 153H29.832ZM33.704 152.104H34.44C35.0373 152.104 35.5973 151.741 36.12 151.016C36.6427 150.28 37.0693 149.139 37.4 147.592C37.7307 146.045 37.896 144.056 37.896 141.624C37.896 139.48 37.7467 137.656 37.448 136.152C37.1493 134.637 36.7653 133.485 36.296 132.696C35.8373 131.896 35.352 131.496 34.84 131.496H33.704V152.104ZM41.778 153V152.104H43.41V137.144H41.778V136.248H45.81V152.104H47.474V153H41.778ZM44.594 133.208C44.0927 133.208 43.6713 133.037 43.33 132.696C42.9887 132.355 42.818 131.944 42.818 131.464C42.818 130.973 42.9887 130.557 43.33 130.216C43.6713 129.875 44.0927 129.704 44.594 129.704C45.0527 129.704 45.4527 129.875 45.794 130.216C46.1353 130.557 46.306 130.973 46.306 131.464C46.306 131.944 46.1353 132.355 45.794 132.696C45.4527 133.037 45.0527 133.208 44.594 133.208ZM52.1302 153.336C51.4903 153.336 50.9196 153.181 50.4183 152.872C49.9169 152.563 49.5169 152.104 49.2183 151.496C48.9303 150.888 48.7863 150.125 48.7863 149.208C48.7863 148.205 48.9783 147.379 49.3623 146.728C49.7463 146.067 50.2209 145.512 50.7863 145.064C51.3516 144.605 51.9169 144.195 52.4823 143.832C53.0583 143.469 53.5383 143.091 53.9223 142.696C54.3063 142.301 54.4983 141.821 54.4983 141.256C54.4983 140.445 54.4396 139.731 54.3223 139.112C54.2049 138.483 54.0076 137.992 53.7303 137.64C53.4636 137.277 53.0903 137.096 52.6102 137.096C52.0876 137.096 51.6449 137.277 51.2823 137.64C50.9303 137.992 50.7543 138.403 50.7543 138.872C50.7543 139.107 50.7916 139.309 50.8663 139.48C50.9409 139.64 51.0103 139.805 51.0743 139.976C51.1489 140.136 51.1863 140.349 51.1863 140.616C51.1863 141 51.0956 141.315 50.9143 141.56C50.7329 141.795 50.4769 141.912 50.1463 141.912C49.8049 141.912 49.5436 141.768 49.3623 141.48C49.1809 141.192 49.0903 140.792 49.0903 140.28C49.0903 139.501 49.2556 138.797 49.5863 138.168C49.9169 137.539 50.3756 137.037 50.9623 136.664C51.5489 136.291 52.2316 136.104 53.0103 136.104C53.7783 136.104 54.4503 136.285 55.0263 136.648C55.6129 137.011 56.0716 137.587 56.4023 138.376C56.7329 139.155 56.8983 140.179 56.8983 141.448V150.984C56.8983 151.432 56.9463 151.741 57.0423 151.912C57.1489 152.072 57.2983 152.152 57.4903 152.152C57.6609 152.152 57.8049 152.115 57.9223 152.04C58.0503 151.965 58.1409 151.896 58.1943 151.832L58.6743 152.584C58.5356 152.733 58.2956 152.872 57.9543 153C57.6129 153.139 57.2183 153.208 56.7703 153.208C56.3436 153.208 55.9809 153.139 55.6823 153C55.3836 152.861 55.1543 152.675 54.9943 152.44C54.8343 152.195 54.7383 151.912 54.7063 151.592C54.6529 151.784 54.5303 152.019 54.3383 152.296C54.1463 152.573 53.8689 152.813 53.5063 153.016C53.1543 153.229 52.6956 153.336 52.1302 153.336ZM52.7863 152.104C53.1489 152.104 53.4583 151.965 53.7143 151.688C53.9703 151.411 54.1623 151.08 54.2903 150.696C54.4289 150.301 54.4983 149.944 54.4983 149.624V143.128C54.4663 143.427 54.2849 143.731 53.9543 144.04C53.6343 144.349 53.2663 144.707 52.8503 145.112C52.4343 145.517 52.0663 146.029 51.7463 146.648C51.4369 147.256 51.2823 148.019 51.2823 148.936C51.2823 149.96 51.4049 150.744 51.6503 151.288C51.9063 151.832 52.2849 152.104 52.7863 152.104ZM59.1378 153V152.104H60.7378V137.144H59.1378V136.248H63.0898V138.12C63.1644 137.853 63.3138 137.565 63.5378 137.256C63.7724 136.936 64.0818 136.664 64.4658 136.44C64.8604 136.216 65.3138 136.104 65.8258 136.104C66.3271 136.104 66.8124 136.227 67.2818 136.472C67.7511 136.717 68.1351 137.192 68.4338 137.896C68.7324 138.6 68.8818 139.64 68.8818 141.016V152.104H70.4498V153H65.1538V152.104H66.4818V141.288C66.4818 139.923 66.3644 138.936 66.1298 138.328C65.8951 137.72 65.5218 137.416 65.0098 137.416C64.7431 137.416 64.4978 137.517 64.2738 137.72C64.0498 137.923 63.8524 138.189 63.6818 138.52C63.5111 138.851 63.3778 139.213 63.2818 139.608C63.1964 139.992 63.1484 140.365 63.1378 140.728V152.104H64.4498V153H59.1378ZM75.099 153.336C74.459 153.336 73.8883 153.181 73.387 152.872C72.8857 152.563 72.4857 152.104 72.187 151.496C71.899 150.888 71.755 150.125 71.755 149.208C71.755 148.205 71.947 147.379 72.331 146.728C72.715 146.067 73.1897 145.512 73.755 145.064C74.3203 144.605 74.8857 144.195 75.451 143.832C76.027 143.469 76.507 143.091 76.891 142.696C77.275 142.301 77.467 141.821 77.467 141.256C77.467 140.445 77.4083 139.731 77.291 139.112C77.1737 138.483 76.9763 137.992 76.699 137.64C76.4323 137.277 76.059 137.096 75.579 137.096C75.0563 137.096 74.6137 137.277 74.251 137.64C73.899 137.992 73.723 138.403 73.723 138.872C73.723 139.107 73.7603 139.309 73.835 139.48C73.9097 139.64 73.979 139.805 74.043 139.976C74.1177 140.136 74.155 140.349 74.155 140.616C74.155 141 74.0643 141.315 73.883 141.56C73.7017 141.795 73.4457 141.912 73.115 141.912C72.7737 141.912 72.5123 141.768 72.331 141.48C72.1497 141.192 72.059 140.792 72.059 140.28C72.059 139.501 72.2243 138.797 72.555 138.168C72.8857 137.539 73.3443 137.037 73.931 136.664C74.5177 136.291 75.2003 136.104 75.979 136.104C76.747 136.104 77.419 136.285 77.995 136.648C78.5817 137.011 79.0403 137.587 79.371 138.376C79.7017 139.155 79.867 140.179 79.867 141.448V150.984C79.867 151.432 79.915 151.741 80.011 151.912C80.1177 152.072 80.267 152.152 80.459 152.152C80.6297 152.152 80.7737 152.115 80.891 152.04C81.019 151.965 81.1097 151.896 81.163 151.832L81.643 152.584C81.5043 152.733 81.2643 152.872 80.923 153C80.5817 153.139 80.187 153.208 79.739 153.208C79.3123 153.208 78.9497 153.139 78.651 153C78.3523 152.861 78.123 152.675 77.963 152.44C77.803 152.195 77.707 151.912 77.675 151.592C77.6217 151.784 77.499 152.019 77.307 152.296C77.115 152.573 76.8377 152.813 76.475 153.016C76.123 153.229 75.6643 153.336 75.099 153.336ZM75.755 152.104C76.1177 152.104 76.427 151.965 76.683 151.688C76.939 151.411 77.131 151.08 77.259 150.696C77.3977 150.301 77.467 149.944 77.467 149.624V143.128C77.435 143.427 77.2537 143.731 76.923 144.04C76.603 144.349 76.235 144.707 75.819 145.112C75.403 145.517 75.035 146.029 74.715 146.648C74.4057 147.256 74.251 148.019 74.251 148.936C74.251 149.96 74.3737 150.744 74.619 151.288C74.875 151.832 75.2537 152.104 75.755 152.104ZM87.201 153V152.104H88.673V131.496H87.201V130.6H91.537L96.529 147.64H96.401V131.496H94.945V130.6H98.737V131.496H97.329V153H95.633L89.457 132.216H89.601V152.104H91.201V153H87.201ZM103.505 153.336C102.865 153.336 102.295 153.181 101.793 152.872C101.292 152.563 100.892 152.104 100.593 151.496C100.305 150.888 100.161 150.125 100.161 149.208C100.161 148.205 100.353 147.379 100.737 146.728C101.121 146.067 101.596 145.512 102.161 145.064C102.727 144.605 103.292 144.195 103.857 143.832C104.433 143.469 104.913 143.091 105.297 142.696C105.681 142.301 105.873 141.821 105.873 141.256C105.873 140.445 105.815 139.731 105.697 139.112C105.58 138.483 105.383 137.992 105.105 137.64C104.839 137.277 104.465 137.096 103.985 137.096C103.463 137.096 103.02 137.277 102.657 137.64C102.305 137.992 102.129 138.403 102.129 138.872C102.129 139.107 102.167 139.309 102.241 139.48C102.316 139.64 102.385 139.805 102.449 139.976C102.524 140.136 102.561 140.349 102.561 140.616C102.561 141 102.471 141.315 102.289 141.56C102.108 141.795 101.852 141.912 101.521 141.912C101.18 141.912 100.919 141.768 100.737 141.48C100.556 141.192 100.465 140.792 100.465 140.28C100.465 139.501 100.631 138.797 100.961 138.168C101.292 137.539 101.751 137.037 102.337 136.664C102.924 136.291 103.607 136.104 104.385 136.104C105.153 136.104 105.825 136.285 106.401 136.648C106.988 137.011 107.447 137.587 107.777 138.376C108.108 139.155 108.273 140.179 108.273 141.448V150.984C108.273 151.432 108.321 151.741 108.417 151.912C108.524 152.072 108.673 152.152 108.865 152.152C109.036 152.152 109.18 152.115 109.297 152.04C109.425 151.965 109.516 151.896 109.569 151.832L110.049 152.584C109.911 152.733 109.671 152.872 109.329 153C108.988 153.139 108.593 153.208 108.145 153.208C107.719 153.208 107.356 153.139 107.057 153C106.759 152.861 106.529 152.675 106.369 152.44C106.209 152.195 106.113 151.912 106.081 151.592C106.028 151.784 105.905 152.019 105.713 152.296C105.521 152.573 105.244 152.813 104.881 153.016C104.529 153.229 104.071 153.336 103.505 153.336ZM104.161 152.104C104.524 152.104 104.833 151.965 105.089 151.688C105.345 151.411 105.537 151.08 105.665 150.696C105.804 150.301 105.873 149.944 105.873 149.624V143.128C105.841 143.427 105.66 143.731 105.329 144.04C105.009 144.349 104.641 144.707 104.225 145.112C103.809 145.517 103.441 146.029 103.121 146.648C102.812 147.256 102.657 148.019 102.657 148.936C102.657 149.96 102.78 150.744 103.025 151.288C103.281 151.832 103.66 152.104 104.161 152.104ZM113.872 153.064L110.96 137.144H109.664V136.248H114.672V137.144H113.52L115.264 148.2L117.008 137.144H115.888V136.248H119.248V137.144H118L115.2 153.064H113.872ZM124.591 153.336C123.823 153.336 123.156 153.101 122.591 152.632C122.036 152.163 121.583 151.523 121.231 150.712C120.879 149.901 120.618 148.973 120.447 147.928C120.287 146.872 120.207 145.757 120.207 144.584C120.207 143.155 120.324 141.907 120.559 140.84C120.794 139.773 121.114 138.893 121.519 138.2C121.935 137.496 122.399 136.973 122.911 136.632C123.434 136.28 123.978 136.104 124.543 136.104C125.215 136.104 125.796 136.307 126.287 136.712C126.778 137.107 127.183 137.645 127.503 138.328C127.823 139 128.063 139.768 128.223 140.632C128.383 141.485 128.463 142.365 128.463 143.272C128.463 143.496 128.463 143.709 128.463 143.912C128.463 144.115 128.452 144.323 128.431 144.536H122.431V143.64H126.095C126.095 142.253 126.047 141.064 125.951 140.072C125.866 139.08 125.711 138.323 125.487 137.8C125.263 137.267 124.948 137 124.543 137C124.159 137 123.823 137.261 123.535 137.784C123.258 138.307 123.039 139.096 122.879 140.152C122.719 141.208 122.639 142.547 122.639 144.168C122.639 145.32 122.666 146.392 122.719 147.384C122.783 148.376 122.895 149.245 123.055 149.992C123.215 150.739 123.439 151.32 123.727 151.736C124.015 152.152 124.394 152.36 124.863 152.36C125.556 152.36 126.1 152.163 126.495 151.768C126.9 151.363 127.172 150.963 127.311 150.568L128.095 151.016C127.882 151.624 127.466 152.163 126.847 152.632C126.228 153.101 125.476 153.336 124.591 153.336ZM129.744 153V152.104H131.344V137.144H129.744V136.248H133.6L133.696 137.928C133.717 137.789 133.818 137.576 134 137.288C134.192 137 134.453 136.733 134.784 136.488C135.125 136.232 135.525 136.104 135.984 136.104C136.517 136.104 136.954 136.291 137.296 136.664C137.637 137.037 137.888 137.539 138.048 138.168C138.218 138.787 138.304 139.485 138.304 140.264C138.304 140.797 138.213 141.208 138.032 141.496C137.85 141.773 137.589 141.912 137.248 141.912C136.938 141.912 136.688 141.789 136.496 141.544C136.314 141.299 136.224 140.963 136.224 140.536C136.224 140.269 136.266 140.045 136.352 139.864C136.448 139.683 136.538 139.496 136.624 139.304C136.709 139.112 136.752 138.872 136.752 138.584C136.752 138.072 136.661 137.704 136.48 137.48C136.298 137.245 136.058 137.128 135.76 137.128C135.365 137.128 135.013 137.309 134.704 137.672C134.405 138.035 134.17 138.499 134 139.064C133.829 139.629 133.744 140.221 133.744 140.84V152.104H135.36V153H129.744ZM143.516 153.288C143.079 153.288 142.653 153.208 142.237 153.048C141.821 152.899 141.479 152.605 141.213 152.168C140.957 151.731 140.829 151.096 140.829 150.264V137.144H138.893V136.248H140.829C141.074 136.045 141.298 135.704 141.501 135.224C141.703 134.733 141.874 134.179 142.013 133.56C142.151 132.931 142.247 132.301 142.301 131.672H143.229V136.248H145.517V137.144H143.229V151.24C143.229 151.677 143.319 151.971 143.501 152.12C143.682 152.269 143.863 152.344 144.045 152.344C144.258 152.344 144.45 152.296 144.621 152.2C144.791 152.093 144.914 151.992 144.989 151.896L145.517 152.6C145.303 152.792 145.026 152.952 144.685 153.08C144.343 153.219 143.954 153.288 143.516 153.288Z" fill="black"/>
</svg>
