<svg width="229" height="237" viewBox="0 0 229 237" fill="none" xmlns="http://www.w3.org/2000/svg">
<g filter="url(#filter0_d_325_195)">
<path d="M71.0052 178.915H9.6281C9.6281 178.915 7.83044 118.93 12.7098 110.599C17.5892 102.268 50.4606 143.091 51.4878 99.2129C52.5151 55.3353 29.9159 65.6104 29.9159 70.6091C29.9159 75.6078 15.5347 87.8269 10.6553 75.6078C5.77598 63.3887 9.11448 11.7353 9.11448 11.7353C9.11448 11.7353 54.8264 8.40282 71.0053 11.7353C87.1842 15.0678 56.624 25.0652 63.8146 42.283C71.0053 59.5009 94.118 57.2792 110.811 49.2257C127.503 41.1722 100.025 23.399 106.188 13.4015C112.351 3.4041 170.904 10.3468 170.904 10.3468V70.6091C172.183 72.5476 170.39 79.4957 181.176 77.5518C191.962 75.6078 186.435 61.1361 198.639 63.9441C210.843 66.7522 221.986 119.576 202.154 122.54C182.322 125.504 187.339 107.544 178.351 107.822C169.363 108.1 172.444 112.821 172.444 112.821L170.904 177.804L114.406 178.915C114.406 178.915 102.079 183.08 104.133 189.468C106.188 195.855 119.028 198.354 118.772 202.52C118.515 206.685 115.947 209.74 112.865 216.683C109.783 223.626 71.0052 220.571 71.0052 218.627C71.0052 216.683 59.7057 206.13 61.7602 200.854C63.8146 195.577 69.7212 197.521 75.1142 192.245C80.5071 186.968 71.0052 178.915 71.0052 178.915Z" stroke="black" stroke-width="3"/>
<path d="M71.0052 178.915H9.6281C9.6281 178.915 7.83044 118.93 12.7098 110.599C17.5892 102.268 50.4606 143.091 51.4878 99.2129C52.5151 55.3353 29.9159 65.6104 29.9159 70.6091C29.9159 75.6078 15.5347 87.8269 10.6553 75.6078C5.77598 63.3887 9.11448 11.7353 9.11448 11.7353C9.11448 11.7353 54.8264 8.40282 71.0053 11.7353C87.1842 15.0678 56.624 25.0652 63.8146 42.283C71.0053 59.5009 94.118 57.2792 110.811 49.2257C127.503 41.1722 100.025 23.399 106.188 13.4015C112.351 3.4041 170.904 10.3468 170.904 10.3468V70.6091C172.183 72.5476 170.39 79.4957 181.176 77.5518C191.962 75.6078 186.435 61.1361 198.639 63.9441C210.843 66.7522 221.986 119.576 202.154 122.54C182.322 125.504 187.339 107.544 178.351 107.822C169.363 108.1 172.444 112.821 172.444 112.821L170.904 177.804L114.406 178.915C114.406 178.915 102.079 183.08 104.133 189.468C106.188 195.855 119.028 198.354 118.772 202.52C118.515 206.685 115.947 209.74 112.865 216.683C109.783 223.626 71.0052 220.571 71.0052 218.627C71.0052 216.683 59.7057 206.13 61.7602 200.854C63.8146 195.577 69.7212 197.521 75.1142 192.245C80.5071 186.968 71.0052 178.915 71.0052 178.915Z" stroke="black" stroke-width="3"/>
<g filter="url(#filter1_d_325_195)">
<path d="M23.832 165V164.104H25.288V143.496H23.832V142.6H28.76C29.7733 142.6 30.7013 143.005 31.544 143.816C32.3867 144.616 33.064 145.832 33.576 147.464C34.088 149.096 34.344 151.149 34.344 153.624C34.344 156.12 34.088 158.216 33.576 159.912C33.064 161.597 32.3813 162.867 31.528 163.72C30.6853 164.573 29.7627 165 28.76 165H23.832ZM27.704 164.104H28.44C29.0373 164.104 29.5973 163.741 30.12 163.016C30.6427 162.28 31.0693 161.139 31.4 159.592C31.7307 158.045 31.896 156.056 31.896 153.624C31.896 151.48 31.7467 149.656 31.448 148.152C31.1493 146.637 30.7653 145.485 30.296 144.696C29.8373 143.896 29.352 143.496 28.84 143.496H27.704V164.104ZM35.778 165V164.104H37.41V149.144H35.778V148.248H39.81V164.104H41.474V165H35.778ZM38.594 145.208C38.0927 145.208 37.6713 145.037 37.33 144.696C36.9887 144.355 36.818 143.944 36.818 143.464C36.818 142.973 36.9887 142.557 37.33 142.216C37.6713 141.875 38.0927 141.704 38.594 141.704C39.0527 141.704 39.4527 141.875 39.794 142.216C40.1353 142.557 40.306 142.973 40.306 143.464C40.306 143.944 40.1353 144.355 39.794 144.696C39.4527 145.037 39.0527 145.208 38.594 145.208ZM46.1302 165.336C45.4903 165.336 44.9196 165.181 44.4183 164.872C43.9169 164.563 43.5169 164.104 43.2183 163.496C42.9303 162.888 42.7863 162.125 42.7863 161.208C42.7863 160.205 42.9783 159.379 43.3623 158.728C43.7463 158.067 44.2209 157.512 44.7863 157.064C45.3516 156.605 45.9169 156.195 46.4823 155.832C47.0583 155.469 47.5383 155.091 47.9223 154.696C48.3063 154.301 48.4983 153.821 48.4983 153.256C48.4983 152.445 48.4396 151.731 48.3223 151.112C48.2049 150.483 48.0076 149.992 47.7303 149.64C47.4636 149.277 47.0903 149.096 46.6102 149.096C46.0876 149.096 45.6449 149.277 45.2823 149.64C44.9303 149.992 44.7543 150.403 44.7543 150.872C44.7543 151.107 44.7916 151.309 44.8663 151.48C44.9409 151.64 45.0103 151.805 45.0743 151.976C45.1489 152.136 45.1863 152.349 45.1863 152.616C45.1863 153 45.0956 153.315 44.9143 153.56C44.7329 153.795 44.4769 153.912 44.1463 153.912C43.8049 153.912 43.5436 153.768 43.3623 153.48C43.1809 153.192 43.0903 152.792 43.0903 152.28C43.0903 151.501 43.2556 150.797 43.5863 150.168C43.9169 149.539 44.3756 149.037 44.9623 148.664C45.5489 148.291 46.2316 148.104 47.0103 148.104C47.7783 148.104 48.4503 148.285 49.0263 148.648C49.6129 149.011 50.0716 149.587 50.4023 150.376C50.7329 151.155 50.8983 152.179 50.8983 153.448V162.984C50.8983 163.432 50.9463 163.741 51.0423 163.912C51.1489 164.072 51.2983 164.152 51.4903 164.152C51.6609 164.152 51.8049 164.115 51.9223 164.04C52.0503 163.965 52.1409 163.896 52.1943 163.832L52.6743 164.584C52.5356 164.733 52.2956 164.872 51.9543 165C51.6129 165.139 51.2183 165.208 50.7703 165.208C50.3436 165.208 49.9809 165.139 49.6823 165C49.3836 164.861 49.1543 164.675 48.9943 164.44C48.8343 164.195 48.7383 163.912 48.7063 163.592C48.6529 163.784 48.5303 164.019 48.3383 164.296C48.1463 164.573 47.8689 164.813 47.5063 165.016C47.1543 165.229 46.6956 165.336 46.1302 165.336ZM46.7863 164.104C47.1489 164.104 47.4583 163.965 47.7143 163.688C47.9703 163.411 48.1623 163.08 48.2903 162.696C48.4289 162.301 48.4983 161.944 48.4983 161.624V155.128C48.4663 155.427 48.2849 155.731 47.9543 156.04C47.6343 156.349 47.2663 156.707 46.8503 157.112C46.4343 157.517 46.0663 158.029 45.7463 158.648C45.4369 159.256 45.2823 160.019 45.2823 160.936C45.2823 161.96 45.4049 162.744 45.6503 163.288C45.9063 163.832 46.2849 164.104 46.7863 164.104ZM53.1378 165V164.104H54.7378V149.144H53.1378V148.248H57.0898V150.12C57.1644 149.853 57.3138 149.565 57.5378 149.256C57.7724 148.936 58.0818 148.664 58.4658 148.44C58.8604 148.216 59.3138 148.104 59.8258 148.104C60.3271 148.104 60.8124 148.227 61.2818 148.472C61.7511 148.717 62.1351 149.192 62.4338 149.896C62.7324 150.6 62.8818 151.64 62.8818 153.016V164.104H64.4498V165H59.1538V164.104H60.4818V153.288C60.4818 151.923 60.3644 150.936 60.1298 150.328C59.8951 149.72 59.5218 149.416 59.0098 149.416C58.7431 149.416 58.4978 149.517 58.2738 149.72C58.0498 149.923 57.8524 150.189 57.6818 150.52C57.5111 150.851 57.3778 151.213 57.2818 151.608C57.1964 151.992 57.1484 152.365 57.1378 152.728V164.104H58.4498V165H53.1378ZM69.099 165.336C68.459 165.336 67.8883 165.181 67.387 164.872C66.8857 164.563 66.4857 164.104 66.187 163.496C65.899 162.888 65.755 162.125 65.755 161.208C65.755 160.205 65.947 159.379 66.331 158.728C66.715 158.067 67.1897 157.512 67.755 157.064C68.3203 156.605 68.8857 156.195 69.451 155.832C70.027 155.469 70.507 155.091 70.891 154.696C71.275 154.301 71.467 153.821 71.467 153.256C71.467 152.445 71.4083 151.731 71.291 151.112C71.1737 150.483 70.9763 149.992 70.699 149.64C70.4323 149.277 70.059 149.096 69.579 149.096C69.0563 149.096 68.6137 149.277 68.251 149.64C67.899 149.992 67.723 150.403 67.723 150.872C67.723 151.107 67.7603 151.309 67.835 151.48C67.9097 151.64 67.979 151.805 68.043 151.976C68.1177 152.136 68.155 152.349 68.155 152.616C68.155 153 68.0643 153.315 67.883 153.56C67.7017 153.795 67.4457 153.912 67.115 153.912C66.7737 153.912 66.5123 153.768 66.331 153.48C66.1497 153.192 66.059 152.792 66.059 152.28C66.059 151.501 66.2243 150.797 66.555 150.168C66.8857 149.539 67.3443 149.037 67.931 148.664C68.5177 148.291 69.2003 148.104 69.979 148.104C70.747 148.104 71.419 148.285 71.995 148.648C72.5817 149.011 73.0403 149.587 73.371 150.376C73.7017 151.155 73.867 152.179 73.867 153.448V162.984C73.867 163.432 73.915 163.741 74.011 163.912C74.1177 164.072 74.267 164.152 74.459 164.152C74.6297 164.152 74.7737 164.115 74.891 164.04C75.019 163.965 75.1097 163.896 75.163 163.832L75.643 164.584C75.5043 164.733 75.2643 164.872 74.923 165C74.5817 165.139 74.187 165.208 73.739 165.208C73.3123 165.208 72.9497 165.139 72.651 165C72.3523 164.861 72.123 164.675 71.963 164.44C71.803 164.195 71.707 163.912 71.675 163.592C71.6217 163.784 71.499 164.019 71.307 164.296C71.115 164.573 70.8377 164.813 70.475 165.016C70.123 165.229 69.6643 165.336 69.099 165.336ZM69.755 164.104C70.1177 164.104 70.427 163.965 70.683 163.688C70.939 163.411 71.131 163.08 71.259 162.696C71.3977 162.301 71.467 161.944 71.467 161.624V155.128C71.435 155.427 71.2537 155.731 70.923 156.04C70.603 156.349 70.235 156.707 69.819 157.112C69.403 157.517 69.035 158.029 68.715 158.648C68.4057 159.256 68.251 160.019 68.251 160.936C68.251 161.96 68.3737 162.744 68.619 163.288C68.875 163.832 69.2537 164.104 69.755 164.104ZM81.201 165V164.104H82.673V143.496H81.201V142.6H85.537L90.529 159.64H90.401V143.496H88.945V142.6H92.737V143.496H91.329V165H89.633L83.457 144.216H83.601V164.104H85.201V165H81.201ZM97.5052 165.336C96.8653 165.336 96.2946 165.181 95.7933 164.872C95.2919 164.563 94.8919 164.104 94.5933 163.496C94.3053 162.888 94.1613 162.125 94.1613 161.208C94.1613 160.205 94.3533 159.379 94.7373 158.728C95.1213 158.067 95.5959 157.512 96.1613 157.064C96.7266 156.605 97.2919 156.195 97.8573 155.832C98.4333 155.469 98.9133 155.091 99.2973 154.696C99.6813 154.301 99.8733 153.821 99.8733 153.256C99.8733 152.445 99.8146 151.731 99.6973 151.112C99.5799 150.483 99.3826 149.992 99.1053 149.64C98.8386 149.277 98.4653 149.096 97.9852 149.096C97.4626 149.096 97.0199 149.277 96.6573 149.64C96.3053 149.992 96.1293 150.403 96.1293 150.872C96.1293 151.107 96.1666 151.309 96.2413 151.48C96.3159 151.64 96.3853 151.805 96.4493 151.976C96.5239 152.136 96.5613 152.349 96.5613 152.616C96.5613 153 96.4706 153.315 96.2893 153.56C96.1079 153.795 95.8519 153.912 95.5213 153.912C95.1799 153.912 94.9186 153.768 94.7373 153.48C94.5559 153.192 94.4653 152.792 94.4653 152.28C94.4653 151.501 94.6306 150.797 94.9613 150.168C95.2919 149.539 95.7506 149.037 96.3373 148.664C96.9239 148.291 97.6066 148.104 98.3853 148.104C99.1533 148.104 99.8253 148.285 100.401 148.648C100.988 149.011 101.447 149.587 101.777 150.376C102.108 151.155 102.273 152.179 102.273 153.448V162.984C102.273 163.432 102.321 163.741 102.417 163.912C102.524 164.072 102.673 164.152 102.865 164.152C103.036 164.152 103.18 164.115 103.297 164.04C103.425 163.965 103.516 163.896 103.569 163.832L104.049 164.584C103.911 164.733 103.671 164.872 103.329 165C102.988 165.139 102.593 165.208 102.145 165.208C101.719 165.208 101.356 165.139 101.057 165C100.759 164.861 100.529 164.675 100.369 164.44C100.209 164.195 100.113 163.912 100.081 163.592C100.028 163.784 99.9053 164.019 99.7133 164.296C99.5213 164.573 99.2439 164.813 98.8813 165.016C98.5293 165.229 98.0706 165.336 97.5052 165.336ZM98.1613 164.104C98.5239 164.104 98.8333 163.965 99.0893 163.688C99.3453 163.411 99.5373 163.08 99.6653 162.696C99.8039 162.301 99.8733 161.944 99.8733 161.624V155.128C99.8413 155.427 99.6599 155.731 99.3293 156.04C99.0093 156.349 98.6413 156.707 98.2253 157.112C97.8093 157.517 97.4413 158.029 97.1213 158.648C96.8119 159.256 96.6573 160.019 96.6573 160.936C96.6573 161.96 96.7799 162.744 97.0253 163.288C97.2813 163.832 97.6599 164.104 98.1613 164.104ZM107.872 165.064L104.96 149.144H103.664V148.248H108.672V149.144H107.52L109.264 160.2L111.008 149.144H109.888V148.248H113.248V149.144H112L109.2 165.064H107.872ZM118.591 165.336C117.823 165.336 117.156 165.101 116.591 164.632C116.036 164.163 115.583 163.523 115.231 162.712C114.879 161.901 114.618 160.973 114.447 159.928C114.287 158.872 114.207 157.757 114.207 156.584C114.207 155.155 114.324 153.907 114.559 152.84C114.794 151.773 115.114 150.893 115.519 150.2C115.935 149.496 116.399 148.973 116.911 148.632C117.434 148.28 117.978 148.104 118.543 148.104C119.215 148.104 119.796 148.307 120.287 148.712C120.778 149.107 121.183 149.645 121.503 150.328C121.823 151 122.063 151.768 122.223 152.632C122.383 153.485 122.463 154.365 122.463 155.272C122.463 155.496 122.463 155.709 122.463 155.912C122.463 156.115 122.452 156.323 122.431 156.536H116.431V155.64H120.095C120.095 154.253 120.047 153.064 119.951 152.072C119.866 151.08 119.711 150.323 119.487 149.8C119.263 149.267 118.948 149 118.543 149C118.159 149 117.823 149.261 117.535 149.784C117.258 150.307 117.039 151.096 116.879 152.152C116.719 153.208 116.639 154.547 116.639 156.168C116.639 157.32 116.666 158.392 116.719 159.384C116.783 160.376 116.895 161.245 117.055 161.992C117.215 162.739 117.439 163.32 117.727 163.736C118.015 164.152 118.394 164.36 118.863 164.36C119.556 164.36 120.1 164.163 120.495 163.768C120.9 163.363 121.172 162.963 121.311 162.568L122.095 163.016C121.882 163.624 121.466 164.163 120.847 164.632C120.228 165.101 119.476 165.336 118.591 165.336ZM123.744 165V164.104H125.344V149.144H123.744V148.248H127.6L127.696 149.928C127.717 149.789 127.818 149.576 128 149.288C128.192 149 128.453 148.733 128.784 148.488C129.125 148.232 129.525 148.104 129.984 148.104C130.517 148.104 130.954 148.291 131.296 148.664C131.637 149.037 131.888 149.539 132.048 150.168C132.218 150.787 132.304 151.485 132.304 152.264C132.304 152.797 132.213 153.208 132.032 153.496C131.85 153.773 131.589 153.912 131.248 153.912C130.938 153.912 130.688 153.789 130.496 153.544C130.314 153.299 130.224 152.963 130.224 152.536C130.224 152.269 130.266 152.045 130.352 151.864C130.448 151.683 130.538 151.496 130.624 151.304C130.709 151.112 130.752 150.872 130.752 150.584C130.752 150.072 130.661 149.704 130.48 149.48C130.298 149.245 130.058 149.128 129.76 149.128C129.365 149.128 129.013 149.309 128.704 149.672C128.405 150.035 128.17 150.499 128 151.064C127.829 151.629 127.744 152.221 127.744 152.84V164.104H129.36V165H123.744ZM137.516 165.288C137.079 165.288 136.653 165.208 136.237 165.048C135.821 164.899 135.479 164.605 135.213 164.168C134.957 163.731 134.829 163.096 134.829 162.264V149.144H132.893V148.248H134.829C135.074 148.045 135.298 147.704 135.501 147.224C135.703 146.733 135.874 146.179 136.013 145.56C136.151 144.931 136.247 144.301 136.301 143.672H137.229V148.248H139.517V149.144H137.229V163.24C137.229 163.677 137.319 163.971 137.501 164.12C137.682 164.269 137.863 164.344 138.045 164.344C138.258 164.344 138.45 164.296 138.621 164.2C138.791 164.093 138.914 163.992 138.989 163.896L139.517 164.6C139.303 164.792 139.026 164.952 138.685 165.08C138.343 165.219 137.954 165.288 137.516 165.288Z" fill="black"/>
</g>
</g>
<defs>
<filter id="filter0_d_325_195" x="0.5" y="0.499969" width="228" height="236" filterUnits="userSpaceOnUse" color-interpolation-filters="sRGB">
<feFlood flood-opacity="0" result="BackgroundImageFix"/>
<feColorMatrix in="SourceAlpha" type="matrix" values="0 0 0 0 0 0 0 0 0 0 0 0 0 0 0 0 0 0 127 0" result="hardAlpha"/>
<feOffset dx="4" dy="4"/>
<feGaussianBlur stdDeviation="5"/>
<feComposite in2="hardAlpha" operator="out"/>
<feColorMatrix type="matrix" values="0 0 0 0 0 0 0 0 0 0 0 0 0 0 0 0 0 0 0.25 0"/>
<feBlend mode="normal" in2="BackgroundImageFix" result="effect1_dropShadow_325_195"/>
<feBlend mode="normal" in="SourceGraphic" in2="effect1_dropShadow_325_195" result="shape"/>
</filter>
<filter id="filter1_d_325_195" x="19" y="135" width="125" height="59" filterUnits="userSpaceOnUse" color-interpolation-filters="sRGB">
<feFlood flood-opacity="0" result="BackgroundImageFix"/>
<feColorMatrix in="SourceAlpha" type="matrix" values="0 0 0 0 0 0 0 0 0 0 0 0 0 0 0 0 0 0 127 0" result="hardAlpha"/>
<feOffset dy="4"/>
<feGaussianBlur stdDeviation="2"/>
<feComposite in2="hardAlpha" operator="out"/>
<feColorMatrix type="matrix" values="0 0 0 0 0 0 0 0 0 0 0 0 0 0 0 0 0 0 0.25 0"/>
<feBlend mode="normal" in2="BackgroundImageFix" result="effect1_dropShadow_325_195"/>
<feBlend mode="normal" in="SourceGraphic" in2="effect1_dropShadow_325_195" result="shape"/>
</filter>
</defs>
</svg>
